<?xml version="1.0" encoding="UTF-8"?>
<!DOCTYPE svg PUBLIC "-//W3C//DTD SVG 1.1//EN" "http://www.w3.org/Graphics/SVG/1.1/DTD/svg11.dtd">
<!-- Creator: CorelDRAW 2021 (64-Bit) -->
<svg xmlns="http://www.w3.org/2000/svg" xml:space="preserve" width="10mm" height="10mm" version="1.1" style="shape-rendering:geometricPrecision; text-rendering:geometricPrecision; image-rendering:optimizeQuality; fill-rule:evenodd; clip-rule:evenodd"
viewBox="0 0 773.23 773.23"
 xmlns:xlink="http://www.w3.org/1999/xlink"
 xmlns:xodm="http://www.corel.com/coreldraw/odm/2003">
 <defs>
  <style type="text/css">
   <![CDATA[
    .str0 {stroke:#2B2A29;stroke-width:1.16;stroke-miterlimit:22.9256}
    .str1 {stroke:#BE3188;stroke-width:1.16;stroke-miterlimit:22.9256}
    .fil5 {fill:none}
    .fil6 {fill:#FEFEFE}
    .fil1 {fill:#FEFEFE}
    .fil15 {fill:#EBECEC}
    .fil14 {fill:#B2B3B3}
    .fil16 {fill:#B2B3B3}
    .fil0 {fill:#011E46}
    .fil7 {fill:#FEFEFE;fill-rule:nonzero}
    .fil19 {fill:#FEFEFE;fill-rule:nonzero}
    .fil13 {fill:url(#id0)}
    .fil11 {fill:url(#id1)}
    .fil2 {fill:url(#id2)}
    .fil12 {fill:url(#id3)}
    .fil18 {fill:url(#id4)}
    .fil17 {fill:url(#id5)}
    .fil9 {fill:url(#id6)}
    .fil10 {fill:url(#id7)}
    .fil3 {fill:url(#id8)}
    .fil4 {fill:url(#id9)}
    .fil8 {fill:url(#id10);fill-rule:nonzero}
   ]]>
  </style>
  <linearGradient id="id0" gradientUnits="userSpaceOnUse" x1="195.09" y1="658.05" x2="229.01" y2="658.05">
   <stop offset="0" style="stop-opacity:1; stop-color:#CD9C44"/>
   <stop offset="0.0392157" style="stop-opacity:1; stop-color:#965A29"/>
   <stop offset="0.14902" style="stop-opacity:1; stop-color:#FDEFA1"/>
   <stop offset="0.231373" style="stop-opacity:1; stop-color:#E2B050"/>
   <stop offset="0.509804" style="stop-opacity:1; stop-color:#ECC975"/>
   <stop offset="0.811765" style="stop-opacity:1; stop-color:#DFAE48"/>
   <stop offset="0.858824" style="stop-opacity:1; stop-color:#FCF6B9"/>
   <stop offset="0.94902" style="stop-opacity:1; stop-color:#945A29"/>
   <stop offset="1" style="stop-opacity:1; stop-color:#CE9B37"/>
  </linearGradient>
  <linearGradient id="id1" gradientUnits="userSpaceOnUse" xlink:href="#id0" x1="232.07" y1="679.4" x2="264.8" y2="679.4">
  </linearGradient>
  <linearGradient id="id2" gradientUnits="objectBoundingBox" xlink:href="#id0" x1="0.511272%" y1="50.0091%" x2="96.9256%" y2="50.0091%">
  </linearGradient>
  <linearGradient id="id3" gradientUnits="userSpaceOnUse" xlink:href="#id0" x1="165.74" y1="630.47" x2="198.54" y2="630.47">
  </linearGradient>
  <linearGradient id="id4" gradientUnits="userSpaceOnUse" xlink:href="#id0" x1="401.2" y1="457.96" x2="484.95" y2="457.96">
  </linearGradient>
  <linearGradient id="id5" gradientUnits="userSpaceOnUse" xlink:href="#id0" x1="428.1" y1="292.76" x2="477.49" y2="292.76">
  </linearGradient>
  <linearGradient id="id6" gradientUnits="userSpaceOnUse" xlink:href="#id0" x1="309.45" y1="179.58" x2="462.14" y2="179.58">
  </linearGradient>
  <linearGradient id="id7" gradientUnits="userSpaceOnUse" xlink:href="#id0" x1="543.31" y1="658.05" x2="577.23" y2="658.05">
  </linearGradient>
  <linearGradient id="id8" gradientUnits="userSpaceOnUse" xlink:href="#id0" x1="235.5" y1="413.86" x2="529.9" y2="413.86">
  </linearGradient>
  <linearGradient id="id9" gradientUnits="userSpaceOnUse" x1="-376.79" y1="-369.86" x2="828.72" y2="866.17">
   <stop offset="0" style="stop-opacity:1; stop-color:#5B5B69"/>
   <stop offset="1" style="stop-opacity:1; stop-color:black"/>
  </linearGradient>
  <linearGradient id="id10" gradientUnits="userSpaceOnUse" xlink:href="#id0" x1="286.67" y1="450" x2="370.42" y2="450">
  </linearGradient>
 </defs>
 <g id="Слой_x0020_1">
  <metadata id="CorelCorpID_0Corel-Layer"/>
  <g id="_1611385600336">
   <g>
    <path class="fil0" d="M115.48 386.61c0,-149.74 121.39,-271.13 271.13,-271.13 149.74,0 271.13,121.39 271.13,271.13 0,149.74 -121.39,271.13 -271.13,271.13 -149.74,0 -271.13,-121.39 -271.13,-271.13zm657.74 0c0,-213.52 -173.09,-386.61 -386.61,-386.61 -213.52,0 -386.61,173.09 -386.61,386.61 0,213.52 173.09,386.61 386.61,386.61 213.52,0 386.61,-173.09 386.61,-386.61z"/>
    <path class="fil1" d="M386.61 115.48c-149.74,0 -271.13,121.39 -271.13,271.13 0,149.74 121.39,271.13 271.13,271.13 149.74,0 271.13,-121.39 271.13,-271.13 0,-149.74 -121.39,-271.13 -271.13,-271.13z"/>
   </g>
   <path class="fil2" d="M386.61 13.75c205.93,0 372.86,166.94 372.86,372.86 0,205.93 -166.94,372.86 -372.86,372.86 -205.93,0 -372.86,-166.94 -372.86,-372.86 0,-205.93 166.94,-372.86 372.86,-372.86zm0 8.24c201.38,0 364.63,163.25 364.63,364.63 0,201.38 -163.25,364.63 -364.63,364.63 -201.38,0 -364.63,-163.25 -364.63,-364.63 0,-201.38 163.25,-364.63 364.63,-364.63z"/>
   <path class="fil2 str0" d="M386.61 105.56c155.22,0 281.05,125.83 281.05,281.05 0,155.22 -125.83,281.05 -281.05,281.05 -155.22,0 -281.05,-125.83 -281.05,-281.05 0,-155.22 125.83,-281.05 281.05,-281.05zm0 6.23c151.78,0 274.83,123.04 274.83,274.83 0,151.78 -123.04,274.83 -274.83,274.83 -151.78,0 -274.83,-123.04 -274.83,-274.83 0,-151.78 123.04,-274.83 274.83,-274.83z"/>
   <path class="fil2" d="M493.7 174.52l0 0c-4.27,-3.5 -8.27,-25.11 -6.94,-28.04 1.47,3.5 0.54,6.35 4.93,9.87 2.94,2.35 7.02,5.29 9.98,7.68 8.51,6.9 0.87,13.08 6.83,18.18l-0.4 0.92 -3.05 -2.48c-0.97,-0.55 -3.58,-0.99 -6.65,-2.66 3.04,1.73 4.8,3.7 5.78,4.24l3.71 1.27 -0.56 0.82c-7.48,-2.37 -8.71,7.38 -19.06,3.78 -3.57,-1.25 -8.23,-3.18 -11.78,-4.43 -5.3,-1.88 -7.24,0.42 -10.98,1.01 1.79,-2.67 22.27,-10.66 27.48,-8.87 1.95,0.48 3.6,1.16 4.99,1.92 -1.37,-0.79 -2.83,-1.83 -4.27,-3.23zm25.87 15.15l0 0c1.24,1.56 2.56,2.77 3.82,3.73 -1.28,-0.93 -2.84,-1.81 -4.7,-2.53 -4.96,-2.42 -26.27,2.92 -28.38,5.34 3.78,-0.12 5.99,-2.15 11.02,0.38 3.37,1.68 7.74,4.18 11.13,5.87 9.82,4.87 12.26,-4.65 19.38,-1.36l0.67 -0.73 -3.52 -1.75c-0.91,-0.65 -2.4,-2.83 -5.19,-4.92 2.83,2.04 5.36,2.8 6.25,3.47l2.71 2.84 0.51 -0.86c-5.26,-5.81 3.1,-10.98 -4.49,-18.89 -2.62,-2.72 -6.31,-6.17 -8.93,-8.86 -3.9,-4.04 -2.63,-6.77 -3.65,-10.42 -1.68,2.73 -0.43,24.69 3.37,28.7l0 0zm23.75 18.26l0 0c1.1,1.8 2.31,3.23 3.5,4.36 2.63,2.5 3.86,4.95 4.7,5.73l3.27 2.16 -0.76 0.66c-6.64,-4.17 -10.27,4.98 -19.39,-1.1 -3.14,-2.1 -7.18,-5.12 -10.31,-7.22 -4.66,-3.14 -7.13,-1.4 -10.89,-1.76 2.4,-2.14 24.22,-4.76 28.83,-1.72 1.86,1 3.34,2.14 4.54,3.26 2.63,2.5 5.13,3.64 5.95,4.41l2.33 3.17 0.62 -0.8c-4.5,-6.43 4.44,-10.5 -2.09,-19.3 -2.26,-3.04 -5.49,-6.92 -7.74,-9.93 -3.37,-4.5 -1.76,-7.04 -2.31,-10.78 -2.01,2.5 -3.53,24.42 -0.27,28.87l0 0zm21.27 21.12l0 0c-2.68,-4.82 1.58,-26.39 3.9,-28.62 0.07,3.79 -1.84,6.09 0.94,11 1.86,3.27 4.57,7.51 6.43,10.81 5.36,9.54 -4.02,12.48 -0.37,19.42l-0.71 0.71 -1.91 -3.43c-0.7,-0.88 -2.96,-2.25 -5.19,-4.93 2.18,2.73 3.07,5.22 3.79,6.08l2.98 2.55 -0.84 0.56c-6.06,-4.98 -10.81,3.63 -19.11,-3.53 -2.86,-2.48 -6.47,-5.99 -9.31,-8.46 -4.23,-3.7 -6.88,-2.29 -10.58,-3.13 2.64,-1.81 24.63,-1.68 28.82,1.92 1.72,1.22 3.04,2.54 4.09,3.82 -1.05,-1.29 -2.06,-2.85 -2.93,-4.78l0 0zm18.44 23.62l0 0c0.64,2.13 1.52,3.87 2.44,5.31 -0.89,-1.46 -2.07,-3.01 -3.7,-4.52 -3.71,-4.08 -25.5,-6.96 -28.35,-5.5 3.56,1.29 6.36,0.22 10.1,4.42 2.5,2.81 5.65,6.74 8.18,9.55 7.32,8.17 13.1,0.21 18.51,5.91l0.89 -0.45 -2.63 -2.92c-0.6,-0.94 -1.18,-3.52 -3,-6.5 1.89,2.93 3.94,4.58 4.53,5.53l1.46 3.65 0.8 -0.61c-2.75,-7.34 6.93,-9.07 2.8,-19.21 -1.42,-3.5 -3.58,-8.07 -5.02,-11.54 -2.15,-5.2 0.05,-7.25 0.44,-11 -2.57,1.91 -9.5,22.76 -7.45,27.88l0 0zm15.34 25.75l0 0c-1.39,-5.33 8.11,-25.16 10.9,-26.74 -0.87,3.68 -3.3,5.45 -1.83,10.88 0.98,3.63 2.56,8.42 3.54,12.07 2.8,10.6 -7.01,11.1 -5.2,18.72l-0.87 0.51 -1 -3.79c-0.45,-1.02 -2.29,-2.92 -3.8,-6.07 1.43,3.18 1.69,5.82 2.16,6.83l2.24 3.22 -0.94 0.32c-4.65,-6.32 -11.39,0.84 -17.62,-8.17 -2.16,-3.12 -4.79,-7.41 -6.92,-10.51 -3.19,-4.64 -6.1,-3.94 -9.47,-5.65 3.03,-1.11 24.27,4.51 27.44,9.03 1.36,1.62 2.31,3.22 3.01,4.71 -0.68,-1.5 -1.29,-3.26 -1.65,-5.35l0 0zm11.98 27.48l0 0c0.08,2 0.42,3.76 0.87,5.28 -0.5,-1.5 -1.22,-3.14 -2.31,-4.82 -2.57,-4.88 -22.95,-13.12 -26.08,-12.41 3.13,2.14 6.12,1.8 8.68,6.8 1.73,3.35 3.79,7.94 5.54,11.3 5.05,9.72 12.64,3.47 16.45,10.32l0.98 -0.2 -1.82 -3.47c-0.34,-1.06 -0.25,-3.7 -1.27,-7.05 1.09,3.31 2.67,5.44 3,6.51l0.51 3.88 0.92 -0.39c-0.84,-7.8 8.96,-7.05 7.51,-17.92 -0.51,-3.74 -1.46,-8.69 -1.99,-12.42 -0.77,-5.57 1.86,-7.03 3.19,-10.56 -2.97,1.22 -14.89,19.69 -14.18,25.16l0 0zm8.42 28.76l0 0c-0.02,-5.51 14.13,-22.34 17.23,-23.18 -1.76,3.36 -4.56,4.46 -4.48,10.08 0.04,3.77 0.37,8.8 0.4,12.59 0.08,10.94 -9.54,8.98 -9.7,16.83l-0.96 0.27 -0.03 -3.93c-0.19,-1.1 -1.49,-3.4 -2.16,-6.82 0.59,3.45 0.16,6.06 0.38,7.13l1.37 3.7 -1.01 0.08c-2.91,-7.28 -11.23,-2.04 -15.01,-12.31 -1.32,-3.55 -2.79,-8.37 -4.08,-11.91 -1.92,-5.27 -4.92,-5.32 -7.75,-7.83 3.19,-0.32 22.38,10.41 24.31,15.58 0.92,1.9 1.43,3.7 1.73,5.32 -0.29,-1.62 -0.44,-3.49 -0.25,-5.6l0 0zm4.74 29.6l0 0c0.68,-5.48 16.83,-20.4 20.01,-20.84 -2.18,3.09 -5.08,3.84 -5.73,9.44 -0.42,3.74 -0.73,8.75 -1.17,12.53 -1.29,10.88 -10.6,7.71 -11.74,15.47l-0.99 0.15 0.47 -3.9c-0.05,-1.14 -1.11,-3.66 -1.31,-7.29 -0.1,-1.64 -0.38,-3.49 -1.05,-5.5 -1.27,-5.36 -18.95,-18.42 -22.16,-18.51 2.49,2.85 5.47,3.26 6.71,8.76 0.84,3.66 1.69,8.63 2.54,12.32 2.47,10.68 11.37,6.51 13.36,14.1l0.99 0.04 -0.89 -3.82c-0.07,-1.14 0.71,-3.77 0.5,-7.39 -0.1,-1.64 0,-3.52 0.45,-5.57l0 0zm0.98 29.95l0 0c1.37,-5.36 19.26,-18.13 22.47,-18.15 -2.54,2.79 -5.52,3.17 -6.86,8.64 -0.89,3.65 -1.84,8.59 -2.75,12.28 -2.64,10.63 -11.48,6.32 -13.58,13.87l-1.01 0.02 0.96 -3.79c0.1,-1.14 -0.63,-3.78 -0.37,-7.4 -0.26,3.62 -1.36,6.13 -1.42,7.27l0.41 3.9 -1 -0.17c-1,-7.77 -10.36,-4.77 -11.47,-15.67 -0.38,-3.77 -0.6,-8.8 -0.98,-12.55 -0.54,-5.6 -3.44,-6.38 -5.55,-9.51 3.17,0.48 19.07,15.66 19.64,21.16 0.42,2.05 0.48,3.94 0.36,5.58 0.12,-1.64 0.44,-3.48 1.14,-5.47l0 0zm-2.78 29.83l0 0c-0.94,1.89 -1.5,3.67 -1.82,5.28 0.32,-1.61 0.49,-3.48 0.35,-5.58 0.11,-5.51 -13.76,-22.56 -16.84,-23.45 1.7,3.36 4.48,4.51 4.32,10.14 -0.11,3.77 -0.53,8.77 -0.62,12.57 -0.27,10.95 9.39,9.13 9.42,16.98l0.96 0.3 0.08 -3.92c0.21,-1.11 1.55,-3.39 2.28,-6.8 -0.65,3.43 -0.28,6.06 -0.5,7.14l-1.44 3.67 1 0.08c3.04,-7.22 11.26,-1.84 15.22,-12.05 1.37,-3.53 2.93,-8.31 4.27,-11.84 2.01,-5.25 5.02,-5.24 7.88,-7.7 -3.19,-0.37 -22.55,10.05 -24.57,15.18l0 0zm-6.52 29.25l0 0c2.66,-4.83 23.18,-12.73 26.28,-11.97 -3.15,2.08 -6.14,1.7 -8.79,6.65 -1.78,3.32 -3.92,7.89 -5.72,11.22 -5.21,9.62 -12.7,3.25 -16.61,10.04l-0.99 -0.21 1.88 -3.45c0.37,-1.05 0.33,-3.7 1.4,-7.03 -1.15,3.3 -2.76,5.39 -3.11,6.46l-0.58 3.88 -0.92 -0.41c0.97,-7.78 -8.85,-7.2 -7.2,-18.03 0.57,-3.75 1.61,-8.68 2.19,-12.41 0.87,-5.55 -1.74,-7.04 -3.01,-10.61 2.94,1.28 14.56,19.94 13.76,25.39 -0.12,2 -0.49,3.75 -0.97,5.26 0.52,-1.49 1.27,-3.11 2.38,-4.78l0 0zm-10.13 28.21l0 0c-1.32,1.51 -2.27,3.03 -2.97,4.44 0.67,-1.44 1.26,-3.13 1.62,-5.09 1.48,-5.32 -7.69,-25.29 -10.45,-26.92 0.8,3.69 3.2,5.49 1.65,10.91 -1.05,3.6 -2.7,8.37 -3.73,12.02 -2.99,10.54 6.82,11.2 4.88,18.81l0.86 0.51 1.06 -3.77c0.47,-1.01 2.35,-2.88 3.89,-6.02 -1.48,3.16 -1.77,5.8 -2.26,6.8l-2.31 3.18 0.95 0.34c4.74,-6.25 11.36,1.02 17.75,-7.88 2.2,-3.07 4.9,-7.33 7.08,-10.4 3.26,-4.59 6.17,-3.83 9.56,-5.49 -3,-1.16 -24.34,4.1 -27.58,8.57l0 0zm-13.6 26.71l0 0c3.78,-4.03 25.61,-6.57 28.44,-5.04 -3.58,1.22 -6.36,0.1 -10.17,4.24 -2.55,2.77 -5.77,6.66 -8.34,9.43 -7.44,8.03 -13.11,-0 -18.6,5.59l-0.88 -0.46 2.68 -2.87c0.61,-0.93 1.23,-3.51 3.1,-6.45 -1.93,2.92 -4.03,4.51 -4.62,5.47l-1.54 3.62 -0.78 -0.62c2.88,-7.29 -6.77,-9.19 -2.48,-19.26 1.48,-3.48 3.72,-8 5.21,-11.46 2.23,-5.16 0.07,-7.25 -0.27,-11.02 2.55,1.96 9.13,22.94 7,28.02 -0.64,2.01 -1.49,3.68 -2.39,5.06 0.9,-1.38 2.07,-2.84 3.65,-4.24l0 0zm-16.86 24.78l0 0c-1.65,1.14 -2.95,2.36 -3.98,3.56 1.01,-1.23 1.99,-2.71 2.84,-4.52 2.76,-4.78 -1.14,-26.41 -3.41,-28.69 -0.14,3.79 1.74,6.13 -1.12,10.98 -1.91,3.23 -4.7,7.43 -6.61,10.7 -5.52,9.47 3.81,12.55 0.05,19.43l0.7 0.72 1.97 -3.4c0.71,-0.85 2.99,-2.19 5.27,-4.83 -2.22,2.69 -3.15,5.17 -3.89,6l-3.02 2.5 0.83 0.58c6.16,-4.87 10.75,3.83 19.16,-3.21 2.9,-2.43 6.58,-5.88 9.46,-8.3 4.3,-3.63 6.92,-2.17 10.63,-2.94 -2.62,-1.86 -24.59,-2.1 -28.85,1.42l0 0zm-19.83 22.48l0 0c-1.77,0.91 -3.22,1.97 -4.4,3.02 1.15,-1.08 2.32,-2.44 3.39,-4.13 3.34,-4.4 2.18,-26.35 0.21,-28.9 -0.62,3.75 0.96,6.31 -2.49,10.76 -2.31,2.98 -5.59,6.79 -7.89,9.8 -6.68,8.69 2.19,12.92 -2.41,19.27l0.6 0.8 2.39 -3.13c0.81,-0.76 3.24,-1.8 5.83,-4.13 -2.55,2.39 -3.79,4.72 -4.61,5.46l-3.31 2.1 0.74 0.68c6.71,-4.05 10.19,5.14 19.41,-0.77 3.19,-2.04 7.26,-5 10.43,-7.06 4.71,-3.06 7.14,-1.28 10.9,-1.58 -2.35,-2.18 -24.14,-5.17 -28.79,-2.21l0 0zm-22.5 19.79l0 0c4.99,-2.34 26.22,3.36 28.29,5.82 -3.78,-0.18 -5.96,-2.24 -11.03,0.19 -3.39,1.64 -7.81,4.06 -11.23,5.69 -9.89,4.71 -12.18,-4.84 -19.35,-1.67l-0.66 -0.75 3.54 -1.68c0.92,-0.64 2.44,-2.8 5.27,-4.85 -2.88,2 -5.41,2.73 -6.32,3.36l-2.75 2.8 -0.5 -0.87c5.36,-5.72 -2.9,-11.03 4.81,-18.81 2.67,-2.69 6.42,-6.07 9.07,-8.72 3.98,-3.99 2.75,-6.72 3.82,-10.35 1.63,2.76 0.02,24.69 -3.84,28.62 -1.34,1.63 -2.73,2.86 -4.08,3.83 1.35,-0.96 2.97,-1.88 4.95,-2.6l0 0zm-24.82 16.81l0 0c-1.95,0.45 -3.62,1.11 -5.02,1.84 1.39,-0.77 2.86,-1.78 4.31,-3.16 4.34,-3.42 8.69,-24.97 7.42,-27.92 -1.53,3.46 -0.66,6.34 -5.1,9.78 -2.97,2.31 -7.12,5.18 -10.09,7.52 -8.62,6.76 -1.09,13.06 -7.14,18.06l0.4 0.93 3.08 -2.44c1,-0.54 3.71,-0.95 6.91,-2.67 -3.19,1.71 -5.04,3.73 -6.06,4.27l-3.73 1.22 0.55 0.83c7.52,-2.25 8.58,7.52 18.99,4.09 3.6,-1.19 8.29,-3.03 11.85,-4.23 5.35,-1.78 7.25,0.54 10.97,1.19 -1.74,-2.7 -22.07,-11.02 -27.33,-9.33l0 0zm-26.73 13.56l0 0c5.42,-1.02 24.56,9.8 25.95,12.68 -3.61,-1.11 -5.22,-3.66 -10.73,-2.56 -3.69,0.74 -8.57,1.99 -12.29,2.7 -10.75,2.1 -10.59,-7.73 -18.32,-6.45l-0.44 -0.89 3.84 -0.74c1.04,-0.39 3.06,-2.1 6.31,-3.39 -3.28,1.22 -5.92,1.29 -6.95,1.7l-3.37 2.02 -0.26 -0.97c6.62,-4.2 -0.06,-11.42 9.35,-17.02 3.25,-1.94 7.72,-4.27 10.96,-6.19 4.86,-2.86 4.34,-5.82 6.29,-9.06 0.89,3.08 -6.13,23.9 -10.85,26.76 -1.62,1.19 -3.22,2 -4.68,2.59 1.48,-0.55 3.22,-0.99 5.21,-1.19l0 0zm-28.22 10.09l0 0c-2,-0.06 -3.78,0.18 -5.31,0.53 1.53,-0.4 3.21,-1.01 4.97,-1.98 5.04,-2.23 14.63,-22.01 14.13,-25.18 -2.33,2.97 -2.2,5.97 -7.37,8.21 -3.46,1.49 -8.18,3.24 -11.65,4.75 -10.04,4.4 -4.32,12.39 -11.41,15.72l0.13 0.99 3.6 -1.59c1.09,-0.26 3.71,0 7.12,-0.79 -3.39,0.86 -5.6,2.31 -6.69,2.56l-3.91 0.25 0.33 0.94c7.83,-0.3 6.43,9.42 17.36,8.7 3.78,-0.25 8.78,-0.87 12.53,-1.14 5.62,-0.4 6.88,2.33 10.33,3.89 -1.02,-3.04 -18.64,-16.19 -24.15,-15.85l0 0zm-102.72 6.38l0 0c-5.5,0.34 -21.35,15.58 -21.97,18.73 3.22,-1.98 4.13,-4.84 9.75,-5.15 3.76,-0.21 8.8,-0.21 12.58,-0.43 10.93,-0.64 8.34,-10.12 16.14,-10.79l0.21 -0.98 -3.91 0.24c-1.11,-0.1 -3.49,-1.27 -6.95,-1.7 3.47,0.36 6.04,-0.23 7.15,-0.1l3.76 1.13 0.02 -1.01c-7.46,-2.42 -2.78,-11.06 -13.28,-14.16 -3.63,-1.07 -8.54,-2.22 -12.16,-3.27 -5.41,-1.56 -5.64,-4.56 -8.33,-7.22 -0.11,3.2 11.88,21.64 17.17,23.23 1.86,0.74 3.6,1.14 5.17,1.34 -1.58,-0.17 -3.36,-0.17 -5.35,0.15l0 0zm-70.25 -447.45l0 0c4.27,-3.51 8.27,-25.13 6.94,-28.04 -1.46,3.49 -0.53,6.35 -4.93,9.87 -2.93,2.35 -7.02,5.29 -9.97,7.67 -8.51,6.9 -0.88,13.09 -6.83,18.18l0.41 0.93 3.04 -2.48c0.97,-0.55 3.57,-1 6.65,-2.67 -3.04,1.73 -4.79,3.7 -5.77,4.24l-3.7 1.28 0.55 0.83c7.48,-2.37 8.72,7.38 19.06,3.78 3.57,-1.24 8.24,-3.17 11.78,-4.43 5.31,-1.88 7.25,0.42 10.98,1.01 -1.79,-2.67 -22.27,-10.66 -27.48,-8.87 -2.05,0.5 -3.77,1.24 -5.21,2.05 1.44,-0.81 2.97,-1.88 4.48,-3.35l0 0zm-25.87 15.14l0 0c-1.24,1.57 -2.56,2.78 -3.82,3.73 1.29,-0.91 2.84,-1.81 4.71,-2.53 4.95,-2.42 26.27,2.93 28.37,5.35 -3.78,-0.12 -5.99,-2.15 -11.02,0.38 -3.36,1.68 -7.74,4.18 -11.13,5.87 -9.81,4.88 -12.26,-4.64 -19.37,-1.36l-0.68 -0.74 3.52 -1.74c0.91,-0.65 2.4,-2.83 5.19,-4.94 -2.83,2.05 -5.36,2.82 -6.25,3.49l-2.71 2.84 -0.51 -0.87c5.26,-5.81 -3.1,-10.98 4.49,-18.89 2.62,-2.73 6.31,-6.17 8.93,-8.87 3.9,-4.05 2.63,-6.77 3.64,-10.41 1.68,2.73 0.43,24.67 -3.36,28.68l0 0zm-23.76 18.26l0 0c3.27,-4.45 1.75,-26.37 -0.26,-28.86 -0.55,3.74 1.06,6.27 -2.32,10.77 -2.25,3.01 -5.48,6.88 -7.73,9.92 -6.52,8.81 2.42,12.89 -2.08,19.31l0.6 0.8 2.34 -3.17c0.79,-0.77 3.22,-1.85 5.77,-4.23 -2.5,2.44 -3.71,4.78 -4.53,5.55l-3.27 2.16 0.76 0.67c6.65,-4.17 10.27,4.97 19.39,-1.1 3.15,-2.1 7.18,-5.13 10.3,-7.22 4.67,-3.14 7.13,-1.41 10.89,-1.77 -2.4,-2.13 -24.23,-4.77 -28.83,-1.72 -1.76,0.94 -3.19,2.02 -4.35,3.1 1.14,-1.1 2.29,-2.48 3.32,-4.19l0 0zm-21.26 21.12l0 0c2.67,-4.82 -1.58,-26.38 -3.9,-28.62 -0.07,3.79 1.84,6.1 -0.94,10.99 -1.85,3.28 -4.57,7.52 -6.42,10.82 -5.37,9.56 4.01,12.48 0.36,19.43l0.71 0.7 1.91 -3.43c0.7,-0.87 2.96,-2.24 5.2,-4.92 -2.19,2.72 -3.08,5.22 -3.8,6.07l-2.97 2.57 0.83 0.54c6.07,-4.96 10.81,3.66 19.11,-3.52 2.86,-2.48 6.47,-5.98 9.3,-8.46 4.24,-3.7 6.89,-2.29 10.58,-3.12 -2.64,-1.82 -24.62,-1.68 -28.82,1.91 -1.63,1.16 -2.91,2.41 -3.93,3.62 0.98,-1.25 1.96,-2.75 2.77,-4.58l0 0zm-18.44 23.62l0 0c-0.59,1.92 -1.35,3.53 -2.18,4.89 0.86,-1.33 1.97,-2.73 3.45,-4.1 3.7,-4.08 25.49,-6.97 28.34,-5.5 -3.56,1.29 -6.36,0.21 -10.1,4.42 -2.5,2.8 -5.65,6.75 -8.18,9.56 -7.32,8.15 -13.11,0.21 -18.51,5.9l-0.89 -0.44 2.63 -2.92c0.61,-0.95 1.18,-3.53 3,-6.5 -1.88,2.94 -3.95,4.6 -4.52,5.54l-1.47 3.65 -0.8 -0.62c2.75,-7.34 -6.93,-9.06 -2.8,-19.22 1.42,-3.49 3.59,-8.05 5.02,-11.53 2.15,-5.21 -0.04,-7.26 -0.45,-11.02 2.57,1.91 9.51,22.78 7.46,27.9l0 0zm-15.34 25.75l0 0c1.39,-5.34 -8.12,-25.15 -10.91,-26.74 0.88,3.68 3.31,5.44 1.84,10.87 -0.99,3.63 -2.56,8.41 -3.53,12.08 -2.82,10.59 7,11.08 5.19,18.71l0.87 0.5 1 -3.79c0.45,-1.01 2.29,-2.92 3.8,-6.07 -1.44,3.19 -1.68,5.82 -2.15,6.83l-2.26 3.22 0.95 0.33c4.64,-6.31 11.38,0.83 17.61,-8.17 2.16,-3.12 4.78,-7.43 6.91,-10.52 3.19,-4.65 6.1,-3.94 9.47,-5.66 -3.01,-1.1 -24.27,4.52 -27.43,9.03 -1.29,1.54 -2.22,3.06 -2.9,4.5 0.65,-1.45 1.21,-3.15 1.54,-5.12l0 0zm-11.98 27.47l0 0c-0.08,2.01 -0.42,3.76 -0.88,5.28 0.5,-1.51 1.23,-3.14 2.32,-4.83 2.57,-4.87 22.95,-13.11 26.08,-12.41 -3.13,2.14 -6.11,1.8 -8.69,6.8 -1.72,3.35 -3.79,7.95 -5.53,11.31 -5.06,9.71 -12.64,3.47 -16.45,10.32l-0.98 -0.21 1.82 -3.48c0.34,-1.06 0.26,-3.7 1.28,-7.04 -1.08,3.32 -2.68,5.44 -3,6.5l-0.51 3.9 -0.92 -0.41c0.84,-7.79 -8.96,-7.05 -7.5,-17.9 0.5,-3.76 1.46,-8.72 1.98,-12.44 0.77,-5.58 -1.86,-7.02 -3.18,-10.56 2.97,1.22 14.89,19.69 14.17,25.15l0 0zm-8.42 28.77l0 0c0.01,-5.52 -14.13,-22.34 -17.24,-23.18 1.76,3.35 4.56,4.45 4.49,10.08 -0.05,3.76 -0.38,8.8 -0.41,12.57 -0.09,10.97 9.54,8.99 9.69,16.83l0.97 0.29 0.02 -3.93c0.18,-1.11 1.5,-3.4 2.16,-6.83 -0.58,3.45 -0.17,6.05 -0.38,7.15l-1.37 3.67 1 0.09c2.92,-7.28 11.23,-2.05 15.02,-12.32 1.32,-3.55 2.79,-8.37 4.08,-11.9 1.92,-5.29 4.92,-5.34 7.76,-7.84 -3.19,-0.32 -22.38,10.42 -24.32,15.58 -0.91,1.9 -1.42,3.71 -1.73,5.31 0.3,-1.62 0.45,-3.48 0.27,-5.58l0 0zm-4.74 29.6l0 0c0.42,1.96 0.53,3.74 0.46,5.32 0.1,-1.58 0.4,-3.34 1.03,-5.24 1.27,-5.37 18.95,-18.43 22.16,-18.52 -2.49,2.84 -5.47,3.26 -6.71,8.75 -0.83,3.67 -1.69,8.62 -2.54,12.33 -2.48,10.67 -11.38,6.51 -13.36,14.1l-0.99 0.04 0.89 -3.82c0.07,-1.11 -0.67,-3.65 -0.52,-7.14 -0.23,3.49 -1.24,5.93 -1.28,7.05l0.47 3.9 -0.99 -0.15c-1.12,-7.76 -10.44,-4.6 -11.73,-15.48 -0.45,-3.76 -0.76,-8.79 -1.17,-12.53 -0.65,-5.6 -3.55,-6.33 -5.72,-9.43 3.17,0.43 19.33,15.35 20.01,20.82l0 0zm-0.99 29.96l0 0c-1.36,-5.35 -19.26,-18.12 -22.47,-18.16 2.54,2.81 5.53,3.18 6.85,8.64 0.91,3.67 1.84,8.6 2.76,12.28 2.64,10.64 11.47,6.33 13.58,13.87l1 0.04 -0.96 -3.82c-0.09,-1.11 0.61,-3.66 0.4,-7.15 0.28,3.49 1.33,5.92 1.4,7.03l-0.4 3.9 0.99 -0.16c1,-7.78 10.36,-4.78 11.47,-15.67 0.38,-3.78 0.6,-8.79 0.97,-12.55 0.55,-5.6 3.44,-6.39 5.56,-9.53 -3.17,0.49 -19.07,15.68 -19.66,21.16 -0.39,1.97 -0.46,3.75 -0.37,5.33 -0.14,-1.57 -0.46,-3.33 -1.12,-5.22l0 0zm2.78 29.83l0 0c0.9,1.79 1.45,3.5 1.78,5.04 -0.28,-1.54 -0.44,-3.35 -0.3,-5.33 -0.11,-5.52 13.76,-22.58 16.84,-23.45 -1.71,3.37 -4.48,4.52 -4.32,10.14 0.11,3.77 0.52,8.79 0.62,12.57 0.27,10.95 -9.39,9.15 -9.42,16.99l-0.96 0.28 -0.08 -3.91c-0.21,-1.13 -1.62,-3.48 -2.33,-7.04 0.71,3.55 0.32,6.27 0.56,7.39l1.42 3.65 -1 0.1c-3.03,-7.24 -11.26,-1.85 -15.22,-12.06 -1.36,-3.54 -2.92,-8.33 -4.27,-11.84 -2.01,-5.26 -5.01,-5.25 -7.89,-7.7 3.19,-0.37 22.55,10.04 24.57,15.17l0 0zm6.52 29.25l0 0c-2.66,-4.84 -23.17,-12.73 -26.28,-11.97 3.16,2.07 6.14,1.7 8.8,6.65 1.76,3.33 3.91,7.88 5.72,11.21 5.21,9.63 12.69,3.26 16.61,10.06l0.98 -0.23 -1.88 -3.44c-0.37,-1.06 -0.33,-3.7 -1.4,-7.03 1.14,3.3 2.76,5.39 3.11,6.46l0.58 3.88 0.91 -0.41c-0.97,-7.78 8.85,-7.2 7.21,-18.04 -0.57,-3.74 -1.61,-8.67 -2.19,-12.38 -0.87,-5.56 1.74,-7.04 3,-10.62 -2.94,1.28 -14.56,19.93 -13.75,25.39 0.11,2.01 0.48,3.75 0.97,5.26 -0.52,-1.5 -1.27,-3.11 -2.39,-4.78l0 0zm10.14 28.2l0 0c1.32,1.52 2.27,3.03 2.97,4.45 -0.67,-1.44 -1.25,-3.14 -1.62,-5.11 -1.48,-5.31 7.69,-25.29 10.46,-26.92 -0.8,3.7 -3.22,5.49 -1.65,10.9 1.05,3.61 2.7,8.38 3.74,12.01 2.99,10.55 -6.82,11.2 -4.88,18.8l-0.86 0.53 -1.06 -3.78c-0.47,-1.01 -2.35,-2.88 -3.9,-6 1.49,3.15 1.78,5.79 2.28,6.78l2.3 3.19 -0.94 0.34c-4.75,-6.25 -11.37,1.02 -17.76,-7.9 -2.2,-3.07 -4.9,-7.33 -7.08,-10.39 -3.26,-4.58 -6.16,-3.82 -9.55,-5.49 2.99,-1.16 24.33,4.1 27.57,8.57l0 0zm13.61 26.71l0 0c-3.77,-4.03 -25.61,-6.56 -28.44,-5.04 3.57,1.23 6.36,0.12 10.17,4.25 2.55,2.78 5.77,6.66 8.34,9.43 7.46,8.03 13.11,-0.02 18.61,5.59l0.88 -0.47 -2.67 -2.87c-0.61,-0.94 -1.23,-3.5 -3.1,-6.45 1.92,2.91 4.02,4.51 4.62,5.47l1.53 3.62 0.78 -0.63c-2.88,-7.3 6.78,-9.19 2.48,-19.26 -1.48,-3.5 -3.72,-8 -5.21,-11.46 -2.23,-5.16 -0.07,-7.25 0.26,-11.02 -2.54,1.96 -9.12,22.93 -6.99,28.03 0.62,1.9 1.4,3.51 2.25,4.84 -0.88,-1.32 -2.02,-2.7 -3.51,-4.03l0 0zm16.86 24.78l0 0c1.66,1.14 2.95,2.36 3.99,3.56 -1.01,-1.22 -1.99,-2.7 -2.84,-4.53 -2.75,-4.78 1.14,-26.4 3.43,-28.67 0.13,3.78 -1.74,6.13 1.11,10.97 1.91,3.24 4.7,7.44 6.61,10.7 5.52,9.47 -3.82,12.55 -0.05,19.43l-0.69 0.72 -1.98 -3.39c-0.71,-0.87 -2.99,-2.19 -5.27,-4.84 2.23,2.68 3.15,5.15 3.89,6.01l3.02 2.5 -0.83 0.58c-6.15,-4.87 -10.75,3.82 -19.16,-3.22 -2.9,-2.43 -6.59,-5.87 -9.46,-8.3 -4.3,-3.63 -6.92,-2.17 -10.63,-2.94 2.62,-1.86 24.59,-2.1 28.84,1.42l0 0zm19.83 22.46l0 0c1.88,0.97 3.37,2.1 4.58,3.2 -1.2,-1.11 -2.45,-2.51 -3.57,-4.31 -3.34,-4.39 -2.19,-26.33 -0.21,-28.87 0.61,3.73 -0.96,6.28 2.49,10.74 2.31,2.98 5.6,6.79 7.9,9.79 6.68,8.7 -2.2,12.93 2.41,19.28l-0.6 0.8 -2.39 -3.11c-0.81,-0.76 -3.24,-1.82 -5.83,-4.15 2.54,2.4 3.79,4.73 4.61,5.47l3.31 2.11 -0.75 0.67c-6.71,-4.05 -10.19,5.14 -19.41,-0.79 -3.19,-2.03 -7.27,-4.99 -10.42,-7.04 -4.73,-3.06 -7.14,-1.27 -10.92,-1.58 2.36,-2.17 24.14,-5.17 28.79,-2.21l0 0zm22.5 19.81l0 0c-4.99,-2.35 -26.21,3.36 -28.28,5.82 3.77,-0.19 5.96,-2.25 11.03,0.19 3.38,1.63 7.81,4.06 11.23,5.68 9.89,4.72 12.17,-4.84 19.35,-1.67l0.65 -0.76 -3.54 -1.68c-0.92,-0.62 -2.44,-2.79 -5.27,-4.83 2.86,1.99 5.42,2.71 6.32,3.36l2.75 2.8 0.5 -0.87c-5.36,-5.72 2.9,-11.03 -4.81,-18.82 -2.66,-2.69 -6.4,-6.06 -9.07,-8.72 -3.98,-3.97 -2.75,-6.72 -3.83,-10.34 -1.63,2.76 -0.01,24.69 3.84,28.63 1.41,1.71 2.89,2.98 4.29,3.96 -1.39,-1 -3.07,-1.98 -5.16,-2.74l0 0zm24.82 16.8l0 0c1.96,0.45 3.62,1.11 5.02,1.82 -1.4,-0.76 -2.86,-1.76 -4.32,-3.14 -4.32,-3.43 -8.68,-24.97 -7.41,-27.92 1.53,3.46 0.65,6.33 5.1,9.79 2.97,2.31 7.11,5.18 10.09,7.51 8.63,6.76 1.09,13.07 7.14,18.07l-0.38 0.93 -3.09 -2.44c-0.99,-0.54 -3.72,-0.95 -6.91,-2.66 3.19,1.71 5.04,3.73 6.05,4.26l3.74 1.21 -0.55 0.84c-7.51,-2.25 -8.58,7.52 -18.99,4.09 -3.6,-1.18 -8.29,-3.03 -11.85,-4.22 -5.35,-1.79 -7.25,0.54 -10.97,1.19 1.74,-2.7 22.08,-11.03 27.34,-9.33l0 0zm26.73 13.56l0 0c-5.42,-1.02 -24.56,9.79 -25.95,12.7 3.61,-1.13 5.21,-3.67 10.72,-2.57 3.7,0.73 8.58,1.98 12.3,2.71 10.75,2.1 10.58,-7.73 18.32,-6.45l0.45 -0.9 -3.85 -0.74c-1.05,-0.38 -3.07,-2.1 -6.32,-3.38 3.28,1.23 5.92,1.28 6.96,1.69l3.37 2.02 0.26 -0.96c-6.62,-4.2 0.06,-11.41 -9.35,-17.02 -3.26,-1.94 -7.72,-4.27 -10.96,-6.19 -4.85,-2.86 -4.34,-5.82 -6.28,-9.06 -0.9,3.08 6.13,23.9 10.86,26.75 1.62,1.17 3.2,2.01 4.67,2.59 -1.49,-0.54 -3.22,-0.98 -5.21,-1.19l0 0zm28.57 8.64l0 0c5.91,3.27 10.96,2.49 12.57,2.9l3.59 1.58 0.14 -0.99c-7.11,-3.34 -1.37,-11.34 -11.42,-15.72 -3.47,-1.51 -8.2,-3.26 -11.65,-4.75 -5.16,-2.24 -5.03,-5.24 -7.37,-8.21 -0.5,3.17 9.09,22.94 14.14,25.18l0 0zm-0.35 1.46l0 0c6.75,-0.2 10.88,2.82 12.49,3.2l3.91 0.24 -0.33 0.95c-7.83,-0.3 -6.42,9.43 -17.36,8.7 -3.78,-0.25 -8.78,-0.87 -12.53,-1.15 -5.61,-0.38 -6.87,2.33 -10.32,3.9 1.02,-3.04 18.64,-16.18 24.15,-15.84l0 0zm-16.92 -445.28l0 0c-6.39,2.2 -11.23,0.55 -12.88,0.68l-3.82 0.94 0.03 -0.99c7.57,-2.06 3.31,-10.92 13.96,-13.5 3.68,-0.89 8.63,-1.8 12.3,-2.67 5.47,-1.31 5.86,-4.28 8.68,-6.8 -0.06,3.21 -12.93,21.02 -18.27,22.35l0 0zm165.61 -0.11l0 0c6.4,2.2 11.23,0.56 12.89,0.69l3.81 0.94 -0.04 -1.01c-7.57,-2.06 -3.31,-10.92 -13.96,-13.5 -3.68,-0.89 -8.64,-1.8 -12.3,-2.67 -5.48,-1.31 -5.86,-4.28 -8.68,-6.8 0.06,3.21 12.93,21.02 18.28,22.35l0 0zm-82.7 460.32l0 0c3.33,0 6.05,-2.72 6.05,-6.06 0,-3.33 -2.72,-6.05 -6.05,-6.05 -3.33,0 -6.06,2.72 -6.06,6.05 0,3.34 2.73,6.06 6.06,6.06l0 0zm36.55 -10.27c-1.86,0.75 -3.6,1.15 -5.17,1.35 1.58,-0.16 3.36,-0.17 5.34,0.14 5.51,0.36 21.36,15.58 21.98,18.73 -3.22,-1.97 -4.13,-4.83 -9.75,-5.13 -3.76,-0.2 -8.8,-0.21 -12.58,-0.43 -10.93,-0.63 -8.33,-10.11 -16.14,-10.8l-0.21 -0.97 3.91 0.24c1.11,-0.12 3.49,-1.27 6.95,-1.71 -3.48,0.36 -6.05,-0.22 -7.16,-0.09l-3.76 1.12 -0.02 -0.99c7.45,-2.43 2.78,-11.07 13.28,-14.18 3.64,-1.07 8.54,-2.21 12.16,-3.26 5.4,-1.57 5.64,-4.56 8.33,-7.22 0.1,3.22 -11.88,21.63 -17.17,23.22l0 0z"/>
   <path class="fil3" d="M386.61 597.24c-65.16,-29.79 -107.55,-71.46 -129.44,-127.18 -19.81,-50.42 -19.83,-105.2 -19.85,-149.21 -0.01,-25.53 -0.02,-47.54 -3.38,-65.96 15.43,-5.55 27.35,-13.01 39.69,-24.48 36.78,0.77 74.74,1.16 112.98,1.16 38.24,0 76.2,-0.39 112.98,-1.16 12.33,11.47 24.26,18.92 39.69,24.48 -3.37,18.42 -3.37,40.43 -3.38,65.96 -0.02,44.02 -0.03,98.79 -19.85,149.22 -21.89,55.71 -64.28,97.38 -129.44,127.17z"/>
   <path class="fil4" d="M386.61 587.48c-61.28,-28.75 -101.16,-68.4 -121.88,-121.12 -19.22,-48.92 -19.24,-102.79 -19.25,-146.08 -0.01,-22.86 -0.01,-42.97 -2.42,-60.57 12.35,-5.19 23,-12 33.6,-21.44 35.82,0.73 72.79,1.1 109.95,1.1 37.16,0 74.14,-0.37 109.95,-1.1 10.6,9.45 21.25,16.26 33.6,21.44 -2.41,17.59 -2.41,37.7 -2.42,60.56 -0.02,43.3 -0.03,97.17 -19.26,146.09 -20.71,52.72 -60.6,92.36 -121.87,121.12z"/>
   <path class="fil5" d="M248.31 262.68c0.98,8.35 1.44,16.79 1.69,25.19 0.32,10.79 0.31,21.61 0.31,32.4 0.02,48.73 0.83,98.27 18.92,144.32 21.89,55.72 64.21,92.18 117.38,117.55 53.17,-25.36 95.48,-61.82 117.38,-117.54 18.09,-46.05 18.9,-95.59 18.92,-144.33 0,-10.8 -0.01,-21.61 0.31,-32.4 0.25,-8.4 0.71,-16.83 1.69,-25.19 -11.09,-5.05 -20.87,-11.51 -30.13,-19.55 -36.05,0.72 -72.11,1.06 -108.17,1.06 -36.06,0 -72.12,-0.34 -108.17,-1.06 -9.26,8.04 -19.04,14.5 -30.13,19.55z"/>
   <path class="fil6 str1" d="M253.06 394.08l133.55 0 -0 -149.89c-36.06,0 -72.12,-0.34 -108.17,-1.06 -9.26,8.04 -19.04,14.5 -30.13,19.55 0.98,8.35 1.44,16.79 1.69,25.19 0.32,10.79 0.31,21.61 0.31,32.4 0.01,24.58 0.22,49.36 2.75,73.8zm133.55 0l0 188.06c53.17,-25.36 95.48,-61.82 117.38,-117.54 8.97,-22.82 13.69,-46.5 16.17,-70.52l-133.55 0z"/>
   <path class="fil0" d="M386.61 582.14l-0 -188.06 -133.55 0c2.48,24.02 7.2,47.69 16.17,70.52 21.89,55.72 64.21,92.18 117.38,117.55zm-0 -188.06l133.55 0c2.53,-24.44 2.74,-49.23 2.75,-73.81 0,-10.8 -0.01,-21.61 0.31,-32.4 0.25,-8.4 0.71,-16.83 1.69,-25.19 -11.09,-5.05 -20.87,-11.51 -30.13,-19.55 -36.05,0.72 -72.11,1.06 -108.17,1.06l0 149.89z"/>
   <path class="fil2" d="M294.73 364.2c-2.04,-0.74 -4.15,-1.51 -6.32,-2.31 -0.09,1.71 -0.2,3.04 -0.3,4.02 0.24,-0.03 0.49,-0.07 0.74,-0.11 1.98,-0.32 3.95,-0.88 5.89,-1.6zm-17.78 5.17c0.2,0.16 0.41,0.31 0.61,0.46 -0.53,-0.79 -0.79,-1.33 -0.79,-1.33 11.61,8.95 24.91,2.77 35.71,-3.81 9.5,-5.79 17.72,-12.26 26.5,-14.6 2.97,-0.79 5.53,-1.27 7.84,-1.42 -0.37,-1.82 -0.78,-3.49 -1.24,-5.12 -8.25,3.49 -18.1,5.06 -26.98,5.22 0.02,1.32 0.05,2.18 0.07,2.77 6.62,-2.56 14.91,-4.62 23.44,-4.12 0.98,0.06 1.41,0.14 1.41,0.14 -26.18,0.56 -35.95,23.03 -56.42,21.99 -4.93,-0.25 -7.38,-1.14 -10.24,-2.68 -2.85,-1.54 -3.5,-3.13 -3.5,-3.13 0,0 4.12,3.48 13.98,2.29 -0.05,-1.1 -0.07,-2.62 -0.04,-4.5 -4.18,-1.45 -8,-3.22 -11.18,-5.36 -1.39,-0.94 -2.7,-2 -3.83,-3.16 0.35,2.36 0.82,3.97 1.08,4.75l-0.27 0c-0.69,-1.14 -1.39,-3.66 -1.9,-5.98 -0.29,-0.37 -0.57,-0.74 -0.81,-1.13l0.04 0.26c0.24,1.39 0.55,2.78 0.99,4.13 0.28,0.87 0.62,1.7 1.01,2.52 0.03,0.06 0.06,0.13 0.09,0.19l-0.79 0c-0.63,-1.27 -1.11,-2.29 -1.22,-2.59 -0.42,-1.14 -0.83,-2.29 -1.18,-3.45 -5.54,-18.27 4.24,-46.18 16.4,-60.47 4.22,-4.95 8.72,-9.71 13.52,-14.14 2.64,-2.44 5.37,-4.78 8.22,-6.99 2.55,-1.98 5.19,-3.86 7.93,-5.58l8.56 -0.92c0.21,0.12 0.4,0.28 0.56,0.48 0.05,0.07 0.1,0.14 0.14,0.21l-2.44 6.59 -0.2 0.09c-0.18,0.09 -0.36,0.18 -0.54,0.27 -26.73,13.52 -50.85,39.19 -51.75,69.76 0.17,-0.35 0.37,-0.69 0.59,-1.04 1.07,-16.95 10.87,-33.33 22.08,-45.68 7.34,-8.1 19.01,-16.75 29.02,-21.52l-6.09 14.99c-0.24,0.59 -0.81,0.96 -1.46,0.95 -0.66,-0.01 -1.21,-0.39 -1.44,-0.99l-1.31 -3.52c0,0 -10.81,7.01 -20.84,18.37 4.74,-4.27 12.25,-6.54 18.01,-7.39 2.28,-0.33 7.12,-0.78 9.29,-0.41 -0.5,0.09 -0.29,0.07 -0.8,0.11 -3.18,0.25 -5.94,0.49 -9.09,1.11 -6.91,1.37 -16.87,5.01 -19.74,11.84 -0.49,1.16 -0.71,2.28 -0.73,3.35 5,-2.42 10.81,-4.06 16.54,-5 -0.37,-2.6 1.54,-4.78 3.89,-6.15 -0.27,-0.14 -0.54,-0.27 -0.78,-0.38 -0.73,-0.35 -3.14,-1.44 -3.65,-1.82l-0.41 -0.39 0.56 -0.07c1.09,0 4.73,1.11 6.44,1.67 2.31,-0.84 5.18,-1.3 7.51,-1.13 0.16,-0.65 0.4,-1.58 0.72,-3.06 -0.17,-0.02 -0.32,-0.05 -0.47,-0.07 2.59,-0.45 8.4,0.21 11.1,0.71 7.29,1.35 17.51,5.21 20.09,12.69 0.37,1.07 0.55,2.11 0.56,3.11 4.2,2.1 7.86,4.84 10.11,8.35 0.28,0.43 0.52,0.86 0.74,1.28 -1.47,-8.51 -6.84,-16.99 -17.61,-25.46 13.92,9.09 20.76,20.26 20.65,32.95 0.31,0.26 0.32,0.47 -0.01,0.53 -0.14,6.11 -1.88,12.56 -5.21,19.3l-3.72 -1.48c2.77,-4.89 4.77,-9.77 5.71,-14.65 -1.42,2.64 -3.7,5 -6.36,6.94 -1.96,1.42 -4.12,2.67 -6.43,3.75 0.34,1.99 0.68,3.91 0.98,5.8 3.89,-0.02 7.11,1 10.5,3.23 5.71,3.76 7,6.61 7,6.61 0,0 -0.27,-0.19 -0.74,-0.49 0.69,0.86 0.92,1.37 0.92,1.37 0,0 -6.53,-4.66 -12.52,-4.73 -5.99,-0.08 -12.52,-0.4 -26.83,8.73 -14.3,9.13 -20.88,13.2 -28.48,14.83 -7.6,1.63 -11.88,-0.49 -15.53,-2.72 -3.65,-2.23 -5.55,-6.07 -5.55,-6.07zm-4.96 -18.92c-0.24,-2.97 -0.23,-6.72 0.41,-11.15 1.23,-1.52 2.86,-2.9 4.73,-4.14 0.18,0.23 0.37,0.45 0.57,0.68 2.97,3.37 7.15,5.94 11.8,7.87 -1,4.13 -1.65,8.4 -1.95,12.29 -0.09,1.2 -0.17,2.47 -0.21,3.78 -0.68,-0.24 -1.35,-0.48 -2.02,-0.74 -3.98,-1.52 -10.2,-4.46 -13.32,-8.59zm0.8 -13.48c0.4,-2.12 0.94,-4.37 1.66,-6.76 0.39,1.31 1.03,2.63 1.94,3.94 -1.33,0.87 -2.55,1.81 -3.6,2.82zm3.26 -11.46c0.43,-1.14 0.9,-2.29 1.42,-3.48 0.47,-1.08 0.98,-2.15 1.51,-3.2 1.38,-1.78 3.23,-3.43 5.52,-4.88 0.48,-0.3 0.96,-0.59 1.46,-0.87 0.76,4.21 4.32,7.73 8.22,10.05 1.1,0.66 2.27,1.26 3.49,1.8 -0.32,0.49 -1.31,2.11 -1.62,2.61 -1.39,2.36 -2.63,4.81 -3.69,7.33 -0.94,2.23 -1.75,4.68 -2.43,7.21 -2.56,-1.06 -4.96,-2.33 -7.12,-3.83 -1.8,-1.25 -3.26,-2.56 -4.38,-3.9 -2,-2.78 -2.76,-5.84 -2.36,-8.84zm5.16 -10.71c1.89,-3.15 4.02,-6.12 6.24,-8.88 -0.27,0.45 -0.52,0.92 -0.74,1.4 -0.7,1.58 -0.97,3.11 -0.9,4.57 -1.47,0.78 -2.85,1.63 -4.13,2.56 -0.16,0.12 -0.32,0.23 -0.47,0.35zm-11 28.9c0.02,1.21 0.08,2.42 0.2,3.64l0.02 0.22c-0.39,-1.21 -0.5,-2.49 -0.22,-3.85zm0.42 14.05c-2.6,-5.3 -5.59,-13.5 -5.17,-22.64 0.72,-15.85 4.44,-29.69 15.39,-45.29 10.95,-15.6 18.07,-20.21 18.07,-20.21l-0.84 -0.53c-0.56,-0.35 -0.82,-0.98 -0.67,-1.61 0.15,-0.63 0.67,-1.08 1.34,-1.15l12.87 -1.38c0,0 -3.09,1.85 -7.28,5.32 -8.43,6.99 -21.79,19.86 -27.75,31.44 -2.31,4.48 -4.46,9.28 -6.09,14.4 -4.33,13.64 -5.45,28.87 0.26,41.66l-0.14 0zm19.64 21.32c0,0 4.13,1.88 13.79,-0.63 9.66,-2.51 23.1,-12.6 30.03,-16.1 6.93,-3.5 12.14,-5.47 19.36,-5.29 7.23,0.18 10.66,3.71 10.66,3.71 0,0 -10.49,-2.26 -21.56,3.01 -11.08,5.27 -20.74,13.44 -34.14,16.5 -13.4,3.06 -18.15,-1.2 -18.15,-1.2zm27.34 -27.14c0.08,-0.88 0.12,-1.96 -0.01,-3.17 -2.05,0.01 -4.04,-0.05 -5.95,-0.17 -6.15,-0.41 -13.73,-1.69 -20.53,-4.24 -0.43,1.56 -0.82,3.17 -1.17,4.91 -0.76,3.74 -1.2,7.32 -1.46,10.91 3.09,0.98 6.08,1.95 8.97,2.89 7.75,-3.48 14.88,-8.99 20.12,-11.12l0.02 -0.01zm42.05 -2.13c12.62,-30.07 -1.19,-48.04 -26.36,-59.99 2.08,0.62 4.08,1.6 6,2.41 23.98,10.1 35.52,34.19 24.61,61l-4.25 -3.42zm5.88 4.61c9.44,-23.23 3.49,-43.46 -19.02,-60.46 25.92,16.21 32.05,38.18 21.9,64.89l-2.88 -4.43zm-48.35 -27.54c0.03,-0.8 0.08,-2.22 0.12,-3.19 0.1,-2.54 0.22,-5.72 0.36,-9.83 -2.49,-0.06 -5.39,-0.54 -7.9,-1.55 -3.67,3.67 -6.88,7.53 -9.64,11.76 5.29,1.9 11.47,2.77 17.06,2.8zm0.31 19.95c-0.46,-10.4 -0.57,-12.01 -0.38,-18.03 -3.5,-0.02 -17.77,-3.32 -18.15,-3.24 -0.05,0.01 -4.49,9.2 -4.83,10.05 -1.01,2.5 -1.84,4.79 -2.56,7.14 8.23,3.05 17.78,4.12 25.92,4.09zm1.39 -18.05c0.23,6.03 0.14,7.64 -0.25,18.04 8.47,-0.14 18.2,-1.49 26.43,-4.9 -0.69,-2.23 -1.5,-4.42 -2.46,-6.81 -1.48,-3.67 -3.19,-7.04 -5.14,-10.2 -5.43,2.41 -11.96,3.71 -18.58,3.87zm-0.2 -4.64c0.04,1 0.08,1.91 0.12,2.73 5.58,-0.11 12.36,-1.47 17.18,-3.18 0.19,-0.07 0.37,-0.15 0.56,-0.23 -2.71,-4.14 -5.86,-7.92 -9.44,-11.52 -2.48,1.15 -5.38,1.73 -7.64,1.89 -0.39,0.03 -0.8,0.04 -1.23,0.04 0.03,0.7 0.36,10.28 0.45,10.27zm-0.53 -12.21c2.03,-0.01 3.96,-0.24 5.54,-0.62 0.62,-0.15 1.35,-0.37 2.1,-0.67 -0.94,-0.9 -1.9,-1.8 -2.89,-2.69 -0.41,-0.36 -1.05,-0.9 -1.68,-1.45 -0.51,0.4 -1.23,0.71 -2.19,0.87 -0.33,0.06 -0.69,0.07 -1.05,0.05 0.06,1.61 0.12,3.11 0.18,4.5zm-7.03 -0.96c2.06,0.64 4.38,0.93 6.61,0.96 0.05,-1.4 0.1,-2.9 0.15,-4.51 -0.73,-0.06 -1.48,-0.27 -2.1,-0.64 -0.71,0.62 -1.48,1.26 -1.94,1.68 -0.93,0.83 -1.84,1.67 -2.72,2.52zm-5.81 -4.32c0.2,0.5 0.52,1.02 1,1.54 0.98,1.06 2.31,1.86 3.83,2.45 1.61,-1.39 3.61,-3.04 5.2,-4.16 -0.2,-0.16 -0.38,-0.35 -0.53,-0.55 -0.09,-0.12 -0.17,-0.24 -0.22,-0.37 -3.03,0.22 -6.15,0.57 -9.28,1.09zm3.46 -6.04c-2.15,1.24 -4.03,3.18 -3.65,5.36 3.22,-0.47 6.39,-0.71 9.35,-0.75 -0.18,-0.83 0.39,-1.58 1.23,-1.98 -1.74,-0.59 -3.5,-1.27 -5.23,-1.89 -0.51,-0.18 -1.1,-0.45 -1.7,-0.74zm8.44 -2.41c-2.2,0.29 -4.13,0.59 -6.12,1.33 1.67,0.77 4.31,2.31 5.44,3.09 0.18,0.12 0.31,0.21 0.41,0.28 0.25,-0.02 0.51,-0.03 0.69,0l0.23 0.09c-0.79,-3.41 -1,-3.29 -0.65,-4.79zm-8.46 13.66c-1.9,-0.92 -3.5,-2.18 -4.4,-3.82 -0.21,-0.39 -0.37,-0.77 -0.48,-1.14 -5.8,1.08 -11.56,2.79 -16.63,5.44 0.65,4.73 5.44,8.39 9.79,10.45 0.51,0.24 1.03,0.47 1.56,0.69 2.71,-3.92 5.86,-7.56 9.33,-10.85 0.23,-0.21 0.51,-0.48 0.84,-0.77zm10.03 -13.96c2.08,-0.22 5.39,0.42 7.03,0.97 0.44,0.15 0.89,0.32 1.33,0.52 0.05,-0.02 0.1,-0.04 0.15,-0.05 1.12,-0.39 4.41,-1.43 6.15,-1.75 -4.03,-1.34 -8.29,-2.11 -11.97,-2.46 -1.03,-0.1 -2.36,-0.14 -3.43,-0.28 0.33,1.48 0.58,2.4 0.74,3.05zm25.65 36.46c0.89,2.12 1.67,4.42 2.32,6.81 1.89,-0.87 3.68,-1.86 5.34,-2.98 7.73,-5.21 11.03,-13.62 3.79,-20.88 -1.87,-1.87 -4.13,-3.47 -6.64,-4.83 -0.86,7.72 -9.86,10.93 -10.19,11.69 -0.06,0.14 4.89,9.05 5.38,10.2zm-18.53 -34.41c-1.58,-0.68 -3.25,-1.13 -4.51,-1.37 -0.71,-0.13 -1.71,-0.23 -2.52,-0.36 0.36,1.49 0.14,1.37 -0.66,4.9l0.09 0.03c0.69,-0.26 0.59,-0.3 1.3,-0.25 0.36,0.03 0.68,0.09 0.96,0.18 0.12,-0.08 0.26,-0.18 0.48,-0.33 1.01,-0.69 3.2,-1.99 4.85,-2.8zm5.03 5.95c0.05,-0.34 0.04,-0.69 -0.01,-1.06 -0.25,-1.55 -1.38,-2.78 -2.85,-3.75 -0.34,0.15 -0.66,0.28 -0.95,0.39 -1.88,0.66 -3.79,1.41 -5.68,2.03l-0.03 0.01c0.56,0.44 0.79,1.04 0.69,1.65 2.65,0.06 5.55,0.31 7.47,0.54 0.45,0.05 0.9,0.11 1.36,0.18zm-4.2 4.35c1.76,-0.82 3.46,-2.03 4.03,-3.65 -2.83,-0.47 -5.57,-0.78 -8.1,-0.96 -0.23,-0.02 -0.46,-0.03 -0.7,-0.04 -0.08,0.18 -0.2,0.36 -0.34,0.54 1.6,1.14 3.55,2.76 5.11,4.12zm5.45 -3.4c-0.03,0.12 -0.07,0.25 -0.12,0.38 -0.65,1.82 -2.14,3.2 -3.98,4.22 0.29,0.26 0.54,0.49 0.75,0.69 3.42,3.24 6.52,6.81 9.2,10.67 0.89,-0.42 1.74,-0.88 2.55,-1.36 4.01,-2.42 7.02,-5.84 7.3,-9.67 -4.8,-2.37 -10.35,-3.94 -15.69,-4.92zm-2.97 -6.3c1.94,1.33 3.42,3.22 3.12,5.56 4.89,0.79 10.52,2.22 15.54,4.5 -0.13,-1.84 -0.91,-3.76 -2.52,-5.7 -2.63,-3.16 -6.61,-5.41 -10.92,-6.97l-0.03 0.03c-0.51,0.38 -2.92,1.48 -3.65,1.82 -0.46,0.22 -0.99,0.49 -1.54,0.76z"/>
   <path class="fil7" d="M327.7 719.22c11.71,-8.5 22.07,-13.17 23.32,-22.75 1.18,-9.02 -5.37,-11.59 -9.87,-12.18 -4.51,-0.59 -9,0.89 -11.35,3.1 -1.57,1.52 -1.94,4.33 -2.31,7.15l1.13 0.15c1.94,-6.05 6.04,-8.96 10.55,-8.37 3.95,0.52 6.96,3.77 6.22,9.41 -1.1,8.45 -8.21,12.4 -21.55,22.41l-0.37 2.82 20.01 2.61c3.94,0.51 5.08,-1.63 5.38,-3.88l0.48 -3.66 -1.13 -0.15c-0.52,3.95 -3.31,5.59 -7.82,5l-12.68 -1.65zm44.05 -29.62c6.25,0.14 7.83,5.86 7.57,17.79 -0.26,11.93 -2.09,17.58 -8.34,17.44 -6.25,-0.14 -7.83,-5.86 -7.57,-17.79 0.26,-11.93 2.09,-17.58 8.34,-17.44zm0.05 -2.27c-9.95,-0.22 -13.81,7.66 -14.07,19.59 -0.26,11.93 3.26,19.97 13.2,20.19 9.94,0.22 13.81,-7.66 14.07,-19.59 0.26,-11.93 -3.26,-19.97 -13.2,-20.19zm24.14 36.52c10.3,-10.17 19.83,-16.35 19.62,-26.01 -0.2,-9.09 -7.05,-10.65 -11.6,-10.55 -4.55,0.1 -8.76,2.24 -10.75,4.78 -1.33,1.73 -1.26,4.58 -1.2,7.42l1.14 -0.02c1,-6.28 4.62,-9.77 9.17,-9.87 3.98,-0.09 7.45,2.68 7.57,8.36 0.19,8.52 -6.24,13.5 -17.92,25.41l0.06 2.84 20.17 -0.44c3.98,-0.09 4.78,-2.38 4.73,-4.65l-0.08 -3.69 -1.14 0.02c0.09,3.98 -2.43,6.02 -6.97,6.12l-12.79 0.28zm33.21 -2.39c9.14,-11.22 17.95,-18.39 16.7,-27.97 -1.18,-9.02 -8.16,-9.83 -12.67,-9.24 -4.51,0.59 -8.47,3.17 -10.18,5.91 -1.13,1.87 -0.76,4.69 -0.4,7.5l1.13 -0.15c0.32,-6.35 3.54,-10.21 8.05,-10.79 3.95,-0.52 7.7,1.86 8.43,7.5 1.1,8.45 -4.75,14.09 -15.08,27.19l0.37 2.82 20.01 -2.61c3.94,-0.51 4.5,-2.88 4.2,-5.13l-0.48 -3.66 -1.13 0.15c0.52,3.95 -1.76,6.25 -6.27,6.84l-12.68 1.65z"/>
   <path class="fil8" d="M287.64 407.58l12.74 0 0 84.96 -1.42 0 -12.74 0 0 -84.96 1.42 0zm40.11 -0.37c2.55,0 4.77,0.73 6.66,2.19 1.89,1.46 2.83,3.37 2.83,5.73l0 37.3c0,0.32 -0.02,0.65 -0.07,0.98 -0.05,0.32 -0.17,0.65 -0.35,0.98 -0.57,1.54 -1.7,2.95 -3.4,4.2 -1.7,1.26 -3.59,1.89 -5.66,1.89l-8.78 0 0 32.06 -1.42 0 -12.74 0 0 -85.32 1.42 0 21.52 0zm-8.78 9.14l0 35.1 1.27 0c0.85,0 1.53,-0.26 2.05,-0.79 0.52,-0.53 0.78,-1.24 0.78,-2.13l0 -29.99c-0.09,-0.89 -0.5,-1.46 -1.2,-1.71 -0.71,-0.24 -1.68,-0.41 -2.9,-0.49zm54.13 69.11c0,2.52 -1.63,4.35 -4.89,5.49 -3.26,1.14 -6.82,1.71 -10.69,1.71l-1.42 0.12c-0.09,-0.08 -0.17,-0.12 -0.21,-0.12 -0.05,0 -0.12,0 -0.21,0 -3.78,-0.08 -7.27,-0.71 -10.48,-1.89 -3.21,-1.18 -4.81,-2.99 -4.81,-5.42l0 -77.77 1.42 0 12.74 0 0 74.6c0,0.49 0.21,0.85 0.64,1.1 0.42,0.24 0.92,0.45 1.49,0.61 0.57,-0.16 1.06,-0.37 1.49,-0.61 0.42,-0.24 0.64,-0.57 0.64,-0.98l0 -74.72 1.42 0 12.89 0 0 77.89z"/>
   <path class="fil9" d="M392.41 140.93c-0.85,-0.37 -1.61,-0.98 -2.75,-0.57 -4.41,1.62 -8.82,3.71 -13.16,5.35 -4.41,1.67 -8.82,3.6 -13.16,5.33 -17.6,7.02 -35.09,14.21 -52.67,21.29 -1.07,0.43 -2.35,0.76 -1.95,2 0.25,0.77 1.57,1.18 2.2,1.51 1.61,0.83 3.18,1.58 4.76,2.37 2.84,1.42 6.34,3.08 9.46,4.68 1.6,0.82 3.01,1.52 4.7,2.32l14.22 7.01c0.01,-0.03 0.01,-0.1 0.02,-0.08 0.01,0.01 0.02,-0.07 0.02,-0.09l-0.06 -6.69c0.09,-4.11 1.74,-6.11 5.1,-7.45 2.18,-0.87 9.66,-2.61 11.86,-3.04 10.22,-2 19.31,-2.94 28.97,-2.95 9.69,-0.01 16.88,0.8 26.38,2.42 1.97,0.33 4.1,0.79 6.23,1.32 2.18,0.54 3.97,0.75 5.74,2.39 4.1,3.8 2.22,8.72 2.87,13.81 9.31,-4.11 18.87,-9.31 28.06,-13.84 -0.19,-1.31 -1.23,-3.09 -1.02,-3.95 0.07,-0.31 0.3,-0.67 0.65,-0.85 2.06,-1.09 2.29,2.13 2.95,3.5 0.76,-0.3 2.21,-0.98 2.88,-1.37 0.95,-0.56 0.86,-1.77 -0.07,-2.26l-9.49 -4.22c-20.93,-9.23 -41.84,-18.61 -62.74,-27.92zm67.29 38.18c-0.04,2.47 0.03,4.97 0.07,7.44 0.03,1.55 -0.08,6.25 0.09,7.4 0.48,-0.09 0.95,-0.37 1.59,-0.37 0.61,-0.01 1.16,0.31 1.61,0.29 0.02,-2.48 0.01,-5.07 -0.11,-7.57 -0.06,-1.22 0.01,-2.48 -0,-3.76 -0.02,-1.3 -0.03,-2.6 -0.03,-3.89l-3.22 0.47zm0.7 21.92c-0.17,0.48 0.1,12.11 0.09,14.29 -0.01,1.43 -0.37,3.76 1.36,3.6 1.53,-0.14 1.1,-2.33 1.08,-3.66 -0.02,-1.59 -0.04,-3.21 -0.06,-4.78 -0.02,-1.46 0.02,-8.76 -0.1,-9.51l-2.38 0.06zm-2.87 -0.6c-0.24,0.54 -0.58,6.92 -0.69,8.13 -0.12,1.25 -0.29,2.77 -0.35,4.04 -0.06,1.34 -0.59,3.03 0.74,3.41 0.6,0.17 1.23,-0.19 1.44,-0.74 0.17,-0.45 0.51,-5.36 0.54,-5.98 0.13,-2.71 0.51,-5.37 0.63,-8.16 -0.46,0.02 -1.14,0.13 -1.49,-0.07 -0.56,-0.31 0.02,-0.72 -0.82,-0.64zm5.7 0.52c0,1.82 0.63,6.11 0.81,8.21 0.06,0.72 0.45,5.66 0.68,6.08 0.61,1.14 2.39,0.72 2.29,-0.76 -0.04,-0.62 -0.18,-1.32 -0.24,-1.97l-1.2 -12.38 -0.42 -0.02c-0.46,1.03 -0.65,0.79 -1.92,0.83zm-4.53 -1.84l5.7 -0.22c0.1,-1.54 -0.89,-3.65 -2.99,-3.57 -0.93,0.03 -1.68,0.53 -2.11,1.14 -0.37,0.52 -0.7,1.8 -0.6,2.64zm-36.39 -16.34c0.42,0.66 0.27,1.44 -0.32,1.9 -0.65,0.52 -1.43,0.15 -2.05,0.01l-5.98 -1.27c-2.66,-0.51 -5.54,-0.94 -8.24,-1.21 -4.66,-0.47 -8.16,-0.68 -12.86,-0.68 -0.88,0 -1.4,0.08 -1.93,-0.6 -0.46,-0.6 -0.22,-1.37 0.23,-1.78 0.65,-0.6 3.69,-0.39 4.5,-0.37 6.82,0.19 14.23,0.86 20.86,2.33 0.99,0.22 5.25,0.88 5.77,1.68zm-74.97 31.4c13.59,-4.26 27.54,-6.44 40.28,-6.63 11.71,-0.17 22.71,0.82 34.2,3.41 0.67,0.15 0.51,0.11 1.27,-0.09l0.2 0.47c0.96,-0.18 0.65,0.04 1.33,0.26l4.03 1.02c0.16,-0.5 -0.36,-24.16 -0.39,-26.9 -0.03,-3.46 -0.55,-5.95 -4.58,-6.94 -14.58,-3.57 -28.06,-4.63 -42.94,-3.78 -2.93,0.17 -11.17,1.03 -14.29,1.67 -1.6,0.33 -3.34,0.54 -4.9,0.92 -3.4,0.83 -6.87,1.49 -10.33,2.58 -4.03,1.27 -4.42,3.13 -4.39,6.85 0.02,3.06 0.09,6 0.16,9.11 0.06,2.88 0.01,5.88 0.13,8.95 0.06,1.51 0.08,3.1 0.07,4.51 -0.01,0.79 0.05,1.53 0.05,2.26 -0,0.67 -0.02,1.77 0.09,2.35z"/>
   <g>
    <polygon class="fil2" points="529.4,696.97 530.12,684.53 541.32,678.78 529.72,674.25 527.72,661.82 519.82,671.46 507.39,669.53 514.12,680.01 508.43,691.24 520.48,688.08 529.4,696.97 "/>
    <polygon class="fil2" points="606.43,642.49 606.43,642.49 600.83,631.36 607.66,620.78 595.35,622.67 587.4,612.9 585.38,625.2 573.64,629.74 584.72,635.46 585.4,648.04 594.26,639.27 606.43,642.49 "/>
    <polygon class="fil10" points="571.51,674.8 571.51,674.8 568.98,662.6 578.32,654.14 565.93,652.78 560.78,641.29 555.65,652.65 543.13,654 552.35,662.39 549.76,674.7 560.59,668.54 571.51,674.8 "/>
   </g>
   <g>
    <polygon class="fil11" points="243.82,696.97 243.1,684.53 231.9,678.78 243.51,674.25 245.51,661.82 253.41,671.46 265.84,669.53 259.11,680.01 264.8,691.24 252.75,688.08 243.82,696.97 "/>
    <polygon class="fil12" points="166.79,642.49 166.79,642.49 172.39,631.36 165.57,620.78 177.88,622.67 185.82,612.9 187.84,625.2 199.58,629.74 188.51,635.46 187.82,648.04 178.96,639.27 166.79,642.49 "/>
    <polygon class="fil13" points="201.72,674.8 201.72,674.8 204.25,662.6 194.91,654.14 207.3,652.78 212.45,641.29 217.57,652.65 230.09,654 220.88,662.39 223.46,674.7 212.64,668.54 201.72,674.8 "/>
   </g>
   <g>
    <g>
     <g>
      <path class="fil14" d="M514.55 337.72c-23.89,-5.63 -49.1,-0.6 -56.75,1.21 -0.6,0.24 -0.92,0.39 -0.92,0.39l-1.1 1.81c-0.17,0.28 1.52,-0.45 4.76,-1.11 3.58,-0.73 9.05,-1.46 15.99,-2.15 11.91,-1.18 35.09,1.68 38.95,2.73 -0.05,-0.51 -0.09,-1.42 -0.73,-2.55 -0.06,-0.11 -0.13,-0.21 -0.2,-0.32z"/>
      <path class="fil15" d="M457.79 338.92c7.65,-1.81 32.87,-6.84 56.75,-1.21 -1.33,-2.06 -4.34,-4.65 -4.34,-4.65 0,0 -7.31,-2.9 -21.57,-2.12 -12.31,0.67 -27.05,6.42 -30.84,7.98z"/>
     </g>
     <path class="fil16" d="M456.41 333.96c0,0 6.83,-16.93 17.67,-27.15 10.84,-10.23 16.26,-11.46 16.26,-11.46 0.16,5.41 -0.06,10.71 -0.84,15.84 -14.04,3.53 -24.95,11.28 -33.1,22.77z"/>
     <path class="fil15" d="M485.96 309.17c2.29,-4.45 3.38,-9.08 4.19,-13.77 -1.07,0.33 -6.43,2.32 -16.06,11.4 -9.82,9.26 -16.34,24 -17.49,26.72 7.48,-11.15 16.69,-20.2 29.37,-24.35z"/>
     <path class="fil15" d="M499.48 314.46c-14.11,-0.38 -27.34,5.48 -37.31,17.84 14.62,-12.12 26.56,-17.52 36.14,-16.97 0.47,3.5 -0.7,6.82 -2.12,10.11l0.28 0.03c1.78,-3.15 2.81,-6.81 3.01,-11.01z"/>
     <path class="fil16" d="M462.17 332.3c9.97,-12.36 23.2,-18.23 37.31,-17.84 -0.2,4.21 -1.23,7.86 -3.01,11.01l0.6 0.07c2.81,-4.49 5.14,-8.16 7.13,-13.8 0,0 -10.45,-1.61 -24.21,4.32 -13.76,5.93 -23.12,20.64 -23.12,20.64l5.26 -4.37c0.01,-0.01 0.02,-0.02 0.03,-0.03z"/>
     <path class="fil15" d="M473.81 331.54c17.4,-5.16 35.21,-0.1 35.21,-0.1 0,0 -0.66,-0.38 -1.96,-0.96 -5.27,-1.8 -12.23,-2.71 -19.87,-2.32 -11.18,0.57 -20.92,3.77 -26.01,8.03 2.82,-1.35 6.86,-2.93 12.62,-4.64z"/>
     <path class="fil14" d="M461.19 336.18c5.09,-4.26 14.83,-7.46 26.01,-8.03 7.64,-0.39 14.6,0.52 19.87,2.32 -1.03,-0.46 -2.45,-1.05 -4.26,-1.68 -4.11,-1.44 -13.22,-4.67 -24.29,-2.55 -11.06,2.11 -21.64,12.4 -21.64,12.4 0.96,-0.68 2.34,-1.52 4.32,-2.46z"/>
    </g>
    <g>
     <g>
      <path class="fil14" d="M394.81 337.72c23.89,-5.63 49.1,-0.6 56.75,1.21 0.6,0.24 0.92,0.39 0.92,0.39l1.1 1.81c0.17,0.28 -1.52,-0.45 -4.76,-1.11 -3.58,-0.73 -9.05,-1.46 -15.99,-2.15 -11.91,-1.18 -35.09,1.68 -38.95,2.73 0.05,-0.51 0.09,-1.42 0.73,-2.55 0.06,-0.11 0.13,-0.21 0.2,-0.32z"/>
      <path class="fil15" d="M451.56 338.92c-7.65,-1.81 -32.87,-6.84 -56.75,-1.21 1.33,-2.06 4.34,-4.65 4.34,-4.65 0,0 7.31,-2.9 21.57,-2.12 12.31,0.67 27.05,6.42 30.84,7.98z"/>
     </g>
     <path class="fil16" d="M452.95 333.96c0,0 -6.83,-16.93 -17.67,-27.15 -10.84,-10.23 -16.26,-11.46 -16.26,-11.46 -0.16,5.41 0.06,10.71 0.84,15.84 14.04,3.53 24.95,11.28 33.1,22.77z"/>
     <path class="fil15" d="M423.4 309.17c-2.29,-4.45 -3.38,-9.08 -4.19,-13.77 1.07,0.33 6.43,2.32 16.06,11.4 9.82,9.26 16.34,24 17.49,26.72 -7.48,-11.15 -16.69,-20.2 -29.37,-24.35z"/>
     <path class="fil15" d="M409.88 314.46c14.11,-0.38 27.34,5.48 37.31,17.84 -14.62,-12.12 -26.56,-17.52 -36.14,-16.97 -0.47,3.5 0.7,6.82 2.12,10.11l-0.28 0.03c-1.78,-3.15 -2.81,-6.81 -3.01,-11.01z"/>
     <path class="fil16" d="M447.19 332.3c-9.97,-12.36 -23.2,-18.23 -37.31,-17.84 0.2,4.21 1.23,7.86 3.01,11.01l-0.6 0.07c-2.81,-4.49 -5.14,-8.16 -7.13,-13.8 0,0 10.45,-1.61 24.21,4.32 13.76,5.93 23.12,20.64 23.12,20.64l-5.26 -4.37c-0.01,-0.01 -0.02,-0.02 -0.03,-0.03z"/>
     <path class="fil15" d="M435.54 331.54c-17.4,-5.16 -35.21,-0.1 -35.21,-0.1 0,0 0.66,-0.38 1.96,-0.96 5.27,-1.8 12.23,-2.71 19.87,-2.32 11.18,0.57 20.92,3.77 26.01,8.03 -2.82,-1.35 -6.86,-2.93 -12.62,-4.64z"/>
     <path class="fil14" d="M448.16 336.18c-5.09,-4.26 -14.83,-7.46 -26.01,-8.03 -7.64,-0.39 -14.6,0.52 -19.87,2.32 1.03,-0.46 2.45,-1.05 4.26,-1.68 4.11,-1.44 13.22,-4.67 24.29,-2.55 11.06,2.11 21.64,12.4 21.64,12.4 -0.96,-0.68 -2.34,-1.52 -4.32,-2.46z"/>
    </g>
    <path class="fil17" d="M427.84 300.25c5.4,-7.4 14.85,-12.3 25.61,-12.3 10.76,0 20.22,4.9 25.61,12.3 -4.55,-8.87 -14.31,-15 -25.61,-15 -11.3,0 -21.06,6.13 -25.61,15z"/>
   </g>
   <path class="fil18" d="M467.01 450.44c-0.58,-1.28 -1.53,-2.9 -2.68,-3.77 0.54,7.65 0.78,11.8 -4.88,18.7 -2.01,2.45 -7.68,7.03 -11.12,7.74 0.08,-6.37 -1.74,-5.77 -2.74,-8.77 3.21,-3.08 3.21,-6.29 2.98,-11.52l-0.58 1.28c-1.37,5.61 -5.21,7.78 -11.15,8.86 -2.48,0.45 -5.13,5.24 -4.67,8.64 0.21,-0.21 0.26,-0.47 0.34,-0.65 0.36,-0.77 0.2,-1.14 3.48,-2.41 2.96,-0.97 2.46,-1.12 4.2,-2.35l0.42 -0.27c2.73,5.28 -2.42,14.06 -3.36,19.91 -1.16,7.23 5.13,13.94 10.44,14.91 -0.46,-0.9 -0.44,-0.69 -1.43,-1.55 -0.62,-0.54 -0.84,-0.82 -1.38,-1.4 -2.96,-3.19 -4.4,-8.18 -3.09,-12.59 1.48,-4.99 6.37,-7.79 11.5,-3.94 0.78,0.59 0.88,0.89 1.5,1.32 3.8,-1.74 9.45,-7.59 11.63,-11.1 3.07,-4.94 4.91,-10.8 4.24,-17.91 0,0.04 1.44,3.73 1.7,4.96 0.51,2.35 0.45,4.24 0.67,6.67 1.47,-2.48 1.94,-10.33 1.94,-13.74 0,-8.33 -2.23,-17.75 -6.64,-24.44 -0.59,-0.9 -1.38,-1.93 -1.78,-2.75 5.74,1.81 8.88,5.63 10.77,6.34 -1.13,-4.06 -8.08,-8.37 -11.79,-10.35 -4.17,-2.22 -11.37,-4.81 -17.05,-5.08 0.48,0.72 -0.03,0.06 0.49,0.57 0.1,0.1 0.44,0.38 0.49,0.42l3.04 1.97c4.34,3.34 6.64,5.73 9.59,10.57 3.17,5.21 5.94,13.9 4.89,21.74zm-61 -13.75c1.82,-0.89 4.95,-3.6 8.19,-3.99 -0.84,1.8 -1.48,2.01 -3.21,5.77 -0.85,1.85 -1.78,4.34 -2.27,6.66 -1.1,5.13 -1.67,10.86 -0.84,16.55 0.37,-2.37 2.17,-6.43 3.49,-8.26l0.28 0.59c0.02,0.06 0.05,0.15 0.07,0.22 0.25,0.95 0.64,5.04 1.47,8.27 0.75,2.95 1.79,5.49 3.1,7.84 1.9,3.39 4.4,6.84 7.32,8.95 1.05,0.76 2.35,1.41 3.26,2.14 0.51,5.03 2.2,8.83 4.54,11.92 1.77,2.33 6.29,6.64 9.68,7.33 -0.59,-1.08 -0.25,-0.55 -1.14,-1.34 -0.47,-0.42 -0.65,-0.54 -1.01,-0.91 -0.7,-0.7 -1.26,-1.35 -1.93,-2.27 -1.16,-1.6 -2.15,-3.57 -2.59,-5.82 -1.28,-6.49 1.37,-10.29 1.91,-14.31 -4.12,-0.9 -7.98,-3.11 -10.58,-6.16 -3.41,-3.99 -3.6,-6.65 -3.79,-13.06 -2.11,1.1 -3.06,4.76 -3.56,6 -1.21,-1.46 -2.67,-8.61 -3,-11.17 -1.05,-8.16 0.25,-17.17 4.36,-24.08 3.01,-5.08 5.07,-6.68 6.15,-8.35 -2.26,0.16 -9.25,5.43 -11.28,7.16 -2.34,2 -7.38,7.24 -8.6,10.31zm66.04 40.95c4.67,-1.39 12.6,-10.53 14.51,-17.4 0.69,-2.46 1.75,-7.35 0.47,-9.64 -1.14,1.42 -1.19,3.45 -2.77,4.51 1.17,-4.14 1.76,-6.01 0.89,-10.73 -0.5,-2.7 -2.17,-7.51 -3.79,-8.95 0.08,1.58 0.35,2.62 0.38,4.24 0.01,0.74 0.02,1.51 -0.03,2.24 -0.02,0.32 -0.06,0.72 -0.12,0.97l-0.42 1.06c-0.47,-3.16 -4.15,-9.47 -5.97,-10.48 0.49,2.74 1.76,5.26 2.54,10.77 1.31,9.32 -0.05,19.79 -3.63,28.5 -0.64,1.55 -1.69,3.24 -2.07,4.91zm-18.58 18.36c1.11,2.02 4.18,2.7 7.41,2.12 -0.23,-0.98 -0.44,-0.34 -0.94,-1.13 4.84,-0.44 6.29,-1.09 10.08,-4 1.07,-0.82 2.02,-1.35 2.58,-2.37l-3.52 0.07c2.98,-1.83 6.19,-1.56 11.1,-8.29 2,-2.74 5.42,-9.22 5.98,-13.35 -2.89,3.16 -2.29,3.91 -7.13,7.73 -1.52,1.19 -2.59,1.92 -4.29,2.99 -6.95,4.36 -2.27,-0.39 -8.16,6.68 -1.08,1.29 -2.55,2.7 -3.79,3.78 -2.03,1.77 -4.13,3.45 -6.56,4.65 -0.86,0.42 -1.91,0.65 -2.74,1.11zm-30.52 -13.85c-0.55,-0.81 0.13,0.01 -0.48,-0.56l-1.84 -1.3c-2.29,-1.75 -4.22,-3.87 -5.67,-6.35 -3.91,-6.67 -2.63,-6.33 -4.62,-11.47 -0.99,3 -1.13,4.99 -1.24,8.42 -2.44,-1.49 -4.44,-11.13 -4.65,-14.94 -0.16,-3 0.08,-6.34 0.59,-9.19 0.49,-2.74 1.65,-5.35 1.98,-7.53 -1.35,2.27 -1.61,1.74 -3.1,5.32 -0.97,2.31 -1.74,4.31 -2.27,6.69 -2.3,10.19 -0.26,19.92 7.99,26.05 2.71,2.01 8.73,4.68 13.32,4.86zm30.45 5.76c-0.62,-0.88 -0.52,-2.01 -1.5,-3.3 -4.08,-5.37 -11.66,3.15 -4.78,11.51 0.87,1.06 3.89,3.76 5.94,4.01 -1.67,-1.64 -3.34,-2.06 -4.55,-6.25 -0.11,-0.4 -0.27,-0.93 -0.33,-1.38l0.4 -1.27c0.03,0.06 0.15,0.34 0.19,0.43l1.06 2.32c8.72,-1.61 19.96,-15.01 20.34,-22.6 -1.18,1.73 -1.87,3.27 -3.15,4.92 -1.2,1.55 -2.6,3.25 -3.95,4.44 -2.46,2.18 -6.83,5.98 -9.67,7.17zm-31.94 0.92c1.74,2.8 1.52,3.74 4.78,6.91 1.2,1.17 5.2,4.17 7.47,4.09l-3.14 -2.83c-1.11,-1.13 -2.12,-2.27 -2.97,-3.48 -1.82,-2.59 -2.96,-5.46 -3.73,-8.87 -8.85,-1.28 -11.13,-1.05 -18.63,-7.08 0.94,2.71 3.98,6.23 5.94,7.71 2.94,2.21 5.56,3.37 10.28,3.56zm21.07 -40.99c0,0 1.71,6.46 -2.24,10.5 -3.95,4.04 -3.86,3.57 -3.79,3.61 0.05,0.02 2,-0.54 3.83,-1.26 1.16,-0.46 2.27,-1.07 2.8,-1.37 1.37,-0.78 2.26,-3.95 1.46,-7.4 -0.8,-3.46 -1.88,-3.67 -2.05,-4.06z"/>
   <g>
    <path class="fil19" d="M105.92 587.8c1.73,1.74 3.11,2.67 4.15,2.76 1.31,0.13 3.05,-0.66 5.22,-2.36l15.18 -11.93c4.3,-3.38 8.37,-4.77 12.19,-4.18 3.84,0.57 7.43,2.98 10.77,7.24 3.24,4.12 4.7,8.11 4.39,11.93 -0.32,3.82 -2.53,7.35 -6.62,10.57l-16.88 13.27c-1.73,1.36 -2.65,2.58 -2.74,3.65 -0.04,1.09 0.61,2.47 1.94,4.17l-1.02 0.8 -11.2 -14.25 1.02 -0.8c1.49,1.9 2.77,2.9 3.85,2.99 1.08,0.1 2.41,-0.48 4.01,-1.73l17.29 -13.59c3.15,-2.48 4.98,-5.07 5.49,-7.79 0.55,-2.69 -0.38,-5.57 -2.79,-8.63 -2.45,-3.12 -5.16,-4.82 -8.12,-5.14 -2.89,-0.31 -6.11,0.93 -9.65,3.71l-14.79 11.63c-2.32,1.82 -3.67,3.41 -4.06,4.76 -0.36,1.3 0.23,2.93 1.76,4.87l-1.02 0.8 -9.38 -11.94 1.02 -0.8zm-27.9 -45.99c1.2,2.1 2.64,3.23 4.31,3.43 1.29,0.16 2.82,-0.27 4.58,-1.28l31.12 -17.89 0.51 0.89 -16.89 43.03 23.62 -13.58c1.61,-0.92 2.69,-1.96 3.23,-3.11 0.8,-1.67 0.59,-3.56 -0.61,-5.65l1.13 -0.65 7.64 13.29 -1.13 0.65c-1.22,-2.11 -2.65,-3.26 -4.3,-3.46 -1.3,-0.15 -2.84,0.28 -4.6,1.29l-26.62 15.3c-0.64,1.65 -0.9,2.89 -0.77,3.78 0.12,0.88 0.53,1.93 1.24,3.16l-1.07 0.62 -5.57 -9.7 14.52 -37.09 -20.06 11.53c-1.62,0.93 -2.68,1.97 -3.21,3.13 -0.81,1.65 -0.6,3.54 0.61,5.65l-1.13 0.65 -7.68 -13.35 1.13 -0.65zm27.75 -40.46l7.76 17.17 -1.19 0.54c-0.96,-2.11 -1.95,-3.42 -2.99,-3.9 -0.99,-0.5 -2.1,-0.48 -3.31,0.07l-29.15 13.18c-1.18,0.53 -1.91,1.28 -2.2,2.24 -0.33,1.27 -0.02,2.95 0.91,5.02l-1.19 0.54 -7.76 -17.17 1.19 -0.54c0.96,2.13 2,3.48 3.11,4.03 0.92,0.44 1.99,0.38 3.21,-0.17l29.15 -13.18c1.18,-0.53 1.9,-1.29 2.18,-2.27 0.34,-1.25 0.03,-2.93 -0.91,-5.02l1.19 -0.54zm-54.65 -30.87c0.42,1.24 0.95,2.1 1.58,2.58 0.83,0.63 2.31,1 4.42,1.09l40.81 1.98 0.35 1.05 -29.45 27.32c-1.74,1.66 -2.87,2.96 -3.38,3.89 -0.6,1.21 -0.65,2.55 -0.14,4.04l-1.23 0.42 -5.59 -16.51 1.23 -0.42c0.61,1.81 1.2,2.96 1.74,3.46 0.54,0.56 1.17,0.72 1.87,0.48 0.4,-0.14 0.93,-0.47 1.57,-1 0.69,-0.52 1.58,-1.25 2.64,-2.2l19.78 -18.39 -25.41 -0.8c-1.15,-0.04 -2.2,-0.05 -3.16,-0.03 -0.95,0.04 -1.72,0.18 -2.35,0.39 -1.06,0.36 -1.61,0.98 -1.67,1.87 -0.04,0.88 0.16,1.99 0.61,3.34l-1.23 0.42 -4.25 -12.57 1.23 -0.42zm22.57 -51.45l11.25 0.77 6.17 34.56 -1.29 0.23c-0.36,-2.04 -1,-3.42 -1.87,-4.15 -0.87,-0.68 -1.94,-0.91 -3.21,-0.68l-31.51 5.63c-1.23,0.22 -2.12,0.77 -2.67,1.67 -0.64,1.08 -0.79,2.63 -0.43,4.62l-1.26 0.22 -6.02 -33.71 8.9 -1.91 0.28 1.59c-2.01,0.83 -3.33,1.55 -3.98,2.16 -1.44,1.27 -1.83,3.7 -1.19,7.28l1.86 10.43c0.13,0.73 0.37,1.15 0.71,1.26 0.43,0.13 1.31,0.08 2.63,-0.15l13.47 -2.41 -1.83 -10.25c-0.38,-2.12 -1.02,-3.56 -1.93,-4.32 -0.89,-0.72 -2.65,-1.1 -5.3,-1.12l-0.27 -1.53 14.68 -2.62 0.27 1.53c-2.48,0.94 -4.02,1.91 -4.64,2.9 -0.55,1.02 -0.64,2.59 -0.26,4.71l1.83 10.25 15.52 -2.77c1.31,-0.23 2.04,-0.72 2.19,-1.46 0.16,-0.67 0.03,-2.16 -0.38,-4.48l-0.82 -4.59c-0.64,-3.61 -1.74,-6.32 -3.3,-8.15 -1.57,-1.78 -4,-3.02 -7.29,-3.7l-0.32 -1.81zm9.94 -46.12l0.27 10.75 -19.49 16.72 0.26 2.48 14.25 -0.36c1.33,-0.03 2.3,-0.4 2.9,-1.12 0.8,-0.93 1.17,-2.56 1.11,-4.88l1.3 -0.03 0.46 18.18 -1.3 0.03c-0.05,-2.07 -0.46,-3.53 -1.23,-4.38 -0.76,-0.8 -1.79,-1.19 -3.08,-1.16l-31.15 0.79c-1.78,0.04 -3.04,0.49 -3.8,1.33 -0.77,0.84 -1.12,2.33 -1.07,4.44l-1.28 0.03 -0.46 -18.34c-0.12,-4.73 0.59,-8.48 2.13,-11.25 1.86,-3.32 4.85,-5.03 8.98,-5.14 3.02,-0.08 5.48,0.93 7.35,3.03 1.69,1.9 2.95,4.7 3.74,8.38l15.51 -13.32c1.24,-1.02 2.11,-2.04 2.59,-3.05 0.5,-0.97 0.74,-1.99 0.71,-3.1l1.3 -0.03zm-31.23 15.1c-3.36,0.09 -5.73,1.27 -7.11,3.55 -1.13,1.93 -1.66,4.81 -1.56,8.65 0,0.13 0.01,0.24 0.01,0.35 0.03,1.33 0.17,2.12 0.41,2.37 0.33,0.28 1.25,0.41 2.75,0.38l15.32 -0.39c-0.12,-4.81 -0.76,-8.33 -1.93,-10.57 -1.54,-2.99 -4.17,-4.44 -7.89,-4.34zm24.27 -47.8c3.13,0.4 5.67,1.89 7.62,4.49 2.2,2.91 3.03,6.45 2.49,10.63 -0.22,1.72 -0.85,3.63 -1.91,5.72 -1.05,2.1 -1.61,3.38 -1.67,3.84 -0.07,0.53 0.04,0.93 0.35,1.22 0.37,0.35 0.95,0.71 1.72,1.09l-0.18 1.42 -14.15 0.09 0.2 -1.55c3.51,-0.69 6.38,-1.92 8.62,-3.71 2.63,-2.06 4.16,-4.73 4.58,-7.99 0.29,-2.31 -0.19,-4.25 -1.44,-5.82 -1.2,-1.5 -2.84,-2.38 -4.93,-2.65 -2.92,-0.37 -5.86,1.07 -8.82,4.32 -2.48,3.04 -4.99,6.07 -7.52,9.13 -3.21,3.27 -6.57,4.68 -10.06,4.24 -3.19,-0.41 -5.72,-1.87 -7.58,-4.39 -1.82,-2.45 -2.52,-5.34 -2.1,-8.66 0.21,-1.61 0.8,-3.37 1.78,-5.28 0.89,-1.9 1.37,-3.12 1.44,-3.69 0.06,-0.46 -0.04,-0.88 -0.31,-1.25 -0.23,-0.35 -0.71,-0.7 -1.42,-1.04l0.16 -1.23 13.92 0.26 -0.2 1.61c-3.56,0.38 -6.45,1.45 -8.67,3.24 -2.22,1.77 -3.52,4.1 -3.89,6.98 -0.24,1.92 0.08,3.56 0.99,4.91 0.91,1.34 2.25,2.12 4.02,2.35 2.72,0.35 5.54,-1.15 8.47,-4.5 2.63,-3.16 5.24,-6.33 7.82,-9.51 3.41,-3.31 6.97,-4.74 10.67,-4.27zm15 -21.55l-3.31 18.55 -1.28 -0.23c0.41,-2.28 0.33,-3.93 -0.26,-4.91 -0.53,-0.98 -1.46,-1.58 -2.77,-1.82l-31.5 -5.62c-1.27,-0.23 -2.3,-0.02 -3.08,0.61 -0.99,0.86 -1.69,2.42 -2.09,4.66l-1.28 -0.23 3.31 -18.55 1.28 0.23c-0.41,2.3 -0.32,4.01 0.28,5.08 0.51,0.88 1.43,1.44 2.74,1.68l31.5 5.62c1.27,0.23 2.3,0.01 3.09,-0.64 0.99,-0.84 1.68,-2.4 2.09,-4.66l1.28 0.23zm-19.64 -47.14l-0.44 1.53c-4.3,0.07 -7,0.58 -8.09,1.53 -1.04,1.02 -2.32,4.19 -3.82,9.48l33.56 9.53c1.24,0.35 2.28,0.24 3.12,-0.33 1.05,-0.74 1.89,-2.22 2.52,-4.43l1.25 0.35 -5.15 18.13 -1.25 -0.36c0.63,-2.23 0.72,-3.87 0.23,-4.91 -0.43,-1.02 -1.29,-1.72 -2.57,-2.08l-33.53 -9.52c-1.5,5.3 -2.08,8.63 -1.71,9.98 0.36,1.42 2.38,3.31 6.05,5.65l-0.43 1.5 -10.52 -3.39 10.02 -35.29 10.74 2.62zm12.43 -50.64c-0.58,1.29 -0.67,2.8 -0.27,4.52 0.39,1.51 1.14,3.12 2.23,4.85l10.6 16.58 11.94 5.4c1.84,0.83 3.25,0.97 4.26,0.43 1,-0.55 2.06,-2.05 3.17,-4.51l1.19 0.54 -8.18 18.1 -1.16 -0.52c1.04,-2.35 1.42,-4.06 1.15,-5.13 -0.27,-1.08 -1.32,-2.02 -3.16,-2.85l-11.54 -5.22 -19.74 3.58c-2.17,0.4 -3.78,0.78 -4.81,1.18 -1.91,0.73 -3.18,1.8 -3.81,3.19l-1.19 -0.54 7.52 -16.64 1.19 0.54c-0.64,1.41 -1.03,2.49 -1.19,3.23 -0.09,0.77 0.29,1.34 1.11,1.72 0.49,0.22 1.09,0.34 1.77,0.31 0.34,-0.05 1.06,-0.15 2.13,-0.32l15.76 -2.81 -9.11 -14.21c-0.59,-0.91 -1.25,-1.54 -2,-1.88 -0.76,-0.34 -1.41,-0.19 -1.98,0.48 -0.57,0.65 -1.11,1.57 -1.65,2.75l-1.19 -0.54 5.76 -12.75 1.19 0.54zm56.66 -45.16c4.95,3.89 7.97,8.63 9.05,14.21 1.13,5.89 -0.28,11.36 -4.24,16.39 -3.97,5.05 -8.98,7.76 -15.02,8.12 -5.76,0.37 -11.12,-1.39 -16.07,-5.28 -4.94,-3.88 -7.88,-8.62 -8.81,-14.19 -0.99,-5.88 0.52,-11.36 4.52,-16.45 3.98,-5.07 8.89,-7.79 14.73,-8.15 5.58,-0.34 10.86,1.44 15.84,5.35zm-4.52 5.79c-4.69,-3.68 -9.07,-5.74 -13.13,-6.16 -4.56,-0.51 -8.25,1.03 -11.07,4.61 -0.01,0.02 -0.03,0.03 -0.04,0.05 -2.84,3.61 -3.5,7.58 -1.97,11.88 1.39,4.03 4.4,7.87 9.02,11.5 4.69,3.68 9.15,5.74 13.38,6.19 4.66,0.53 8.43,-1.04 11.31,-4.71 2.79,-3.55 3.37,-7.51 1.73,-11.88 -1.52,-4.02 -4.58,-7.85 -9.22,-11.49zm23.46 -43.2l-1.12 1.18c-1.86,-1.13 -3.22,-1.77 -4.1,-1.93 -1.87,-0.41 -4.06,0.71 -6.57,3.35l-7.32 7.68c-0.51,0.53 -0.71,0.98 -0.6,1.32 0.15,0.43 0.71,1.11 1.67,2.03l9.91 9.45 6.6 -6.92c1.5,-1.57 2.28,-2.94 2.35,-4.12 0.06,-1.14 -0.68,-2.79 -2.23,-4.94l1.08 -1.13 10.79 10.29 -1.08 1.13c-2.22,-1.44 -3.91,-2.11 -5.08,-2.03 -1.15,0.16 -2.47,1.02 -3.96,2.59l-6.6 6.92 11.41 10.88c1.26,1.2 2.47,1.6 3.64,1.24 0.85,-0.28 1.92,-1.09 3.21,-2.44l0.94 0.9 -12.33 12.94 -0.94 -0.9c1.43,-1.5 2.18,-2.82 2.24,-3.96 0.03,-1.1 -0.42,-2.11 -1.35,-3l-23.17 -22.09c-0.9,-0.86 -1.88,-1.25 -2.93,-1.17 -1.25,0.12 -2.58,0.92 -3.98,2.39l-0.93 -0.88 23.64 -24.8 6.81 6.04zm62.12 -17.91l4.11 10.5 -28.61 20.35 -0.76 -1.07c1.69,-1.2 2.67,-2.36 2.95,-3.47 0.24,-1.08 -0.01,-2.15 -0.76,-3.2l-18.55 -26.08c-0.72,-1.02 -1.61,-1.58 -2.65,-1.71 -1.25,-0.12 -2.71,0.41 -4.36,1.59l-0.74 -1.04 27.91 -19.85 5.53 7.23 -1.32 0.94c-1.61,-1.46 -2.83,-2.35 -3.66,-2.68 -1.76,-0.76 -4.12,-0.07 -7.09,2.04l-8.64 6.14c-0.6,0.43 -0.88,0.82 -0.84,1.18 0.06,0.45 0.48,1.22 1.26,2.31l7.93 11.15 8.49 -6.04c1.76,-1.25 2.78,-2.44 3.09,-3.59 0.27,-1.11 -0.14,-2.87 -1.25,-5.27l1.26 -0.9 8.64 12.15 -1.26 0.9c-1.9,-1.84 -3.44,-2.82 -4.6,-2.95 -1.16,-0.06 -2.62,0.53 -4.37,1.78l-8.49 6.04 9.14 12.85c0.77,1.09 1.52,1.54 2.26,1.36 0.67,-0.14 1.97,-0.9 3.89,-2.26l3.8 -2.7c2.98,-2.12 4.96,-4.28 5.96,-6.46 0.94,-2.18 1.02,-4.9 0.23,-8.17l1.5 -1.07zm41.3 -17.4c-1.41,4.58 -3.01,7.92 -4.77,10 -1.74,2.07 -4.01,3.83 -6.79,5.26 -5.83,2.98 -11.45,3.65 -16.88,2.01 -5.67,-1.68 -10.09,-5.62 -13.27,-11.84 -2.87,-5.6 -3.45,-11.23 -1.73,-16.89 1.84,-5.95 5.73,-10.43 11.66,-13.47 1.72,-0.88 3.5,-1.55 5.35,-2.01 1.94,-0.41 3.87,-0.85 5.83,-1.32 0.5,-0.26 0.92,-0.72 1.25,-1.38 0.33,-0.61 0.4,-1.18 0.24,-1.7l1.22 -0.62 7.12 12.79 -1.39 0.71c-2.67,-2.83 -5.48,-4.64 -8.43,-5.43 -3.15,-0.85 -6.29,-0.47 -9.42,1.13 -4.61,2.36 -7.21,6.04 -7.82,11.05 -0.53,4.32 0.42,8.83 2.82,13.51 2.95,5.77 6.7,9.44 11.23,11.04 3.99,1.42 8.05,1.07 12.18,-1.05 2.25,-1.15 4.23,-2.78 5.94,-4.87 1.68,-2.08 2.98,-4.57 3.91,-7.48l1.77 0.57zm39.96 -29.09c2.02,5.96 1.95,11.58 -0.19,16.85 -2.28,5.55 -6.45,9.36 -12.51,11.41 -6.09,2.06 -11.76,1.59 -17.01,-1.42 -5.02,-2.84 -8.55,-7.24 -10.57,-13.21 -2.01,-5.95 -1.89,-11.52 0.38,-16.7 2.39,-5.46 6.65,-9.23 12.78,-11.3 6.11,-2.07 11.7,-1.66 16.79,1.23 4.86,2.76 8.31,7.14 10.34,13.14zm-6.95 2.38c-1.91,-5.65 -4.46,-9.76 -7.63,-12.34 -3.54,-2.92 -7.47,-3.65 -11.79,-2.19 -0.02,0.01 -0.04,0.01 -0.06,0.02 -4.35,1.47 -7.07,4.43 -8.14,8.87 -1.04,4.14 -0.62,9 1.27,14.56 1.91,5.65 4.52,9.81 7.82,12.5 3.61,2.99 7.63,3.74 12.04,2.24 4.28,-1.45 6.93,-4.45 7.94,-9 0.93,-4.19 0.45,-9.08 -1.44,-14.66zm54.66 -31.42c-2.38,0.42 -3.93,1.4 -4.68,2.89 -0.59,1.16 -0.7,2.75 -0.34,4.74l6.31 35.34 -1.01 0.18 -34.78 -30.45 4.79 26.82c0.33,1.82 0.93,3.19 1.83,4.09 1.3,1.32 3.15,1.76 5.52,1.34l0.23 1.28 -15.1 2.7 -0.23 -1.28c2.4,-0.43 3.97,-1.39 4.72,-2.88 0.58,-1.17 0.7,-2.77 0.34,-4.76l-5.4 -30.23c-1.33,-1.16 -2.42,-1.83 -3.3,-2 -0.87,-0.19 -2,-0.15 -3.4,0.1l-0.22 -1.22 11.01 -1.97 29.99 26.21 -4.07 -22.78c-0.33,-1.84 -0.94,-3.19 -1.86,-4.08 -1.28,-1.32 -3.12,-1.77 -5.52,-1.34l-0.23 -1.28 15.16 -2.71 0.23 1.28zm53.06 18.53c0.16,6.29 -1.57,11.64 -5.18,16.03 -3.82,4.63 -8.93,7.02 -15.33,7.18 -6.42,0.16 -11.7,-1.97 -15.83,-6.4 -3.95,-4.2 -6.02,-9.45 -6.18,-15.75 -0.16,-6.28 1.62,-11.57 5.31,-15.83 3.9,-4.51 9.09,-6.84 15.55,-7.01 6.45,-0.16 11.67,1.88 15.67,6.15 3.82,4.08 5.82,9.29 5.98,15.61zm-7.34 0.21c-0.15,-5.96 -1.36,-10.64 -3.63,-14.05 -2.52,-3.84 -6.05,-5.7 -10.61,-5.59 -0.02,0 -0.04,0 -0.06,0 -4.59,0.12 -8.07,2.13 -10.41,6.05 -2.22,3.64 -3.26,8.41 -3.11,14.28 0.15,5.96 1.41,10.71 3.76,14.26 2.56,3.92 6.18,5.83 10.83,5.71 4.52,-0.11 7.93,-2.2 10.25,-6.24 2.13,-3.73 3.12,-8.54 2.98,-14.43zm66.07 30.87l-17.84 -3.19 0.23 -1.28c2.1,0.38 3.65,0.28 4.63,-0.31 0.94,-0.58 1.53,-1.51 1.75,-2.78l5.54 -31.04 -22.91 33.48 -0.87 -0.16 -9.83 -37.81 -4.91 27.51c-0.34,1.93 -0.25,3.43 0.3,4.5 0.72,1.39 2.3,2.31 4.73,2.75l-0.23 1.28 -15.06 -2.69 0.23 -1.28c2.39,0.43 4.2,0.11 5.39,-0.94 0.88,-0.81 1.49,-2.19 1.84,-4.12l5.23 -29.31c0.25,-1.4 0.1,-2.46 -0.47,-3.19 -0.75,-0.97 -2.32,-1.67 -4.72,-2.1l0.23 -1.28 12.51 2.23 8.99 34.37 19.96 -29.2 12.72 2.27 -0.23 1.28c-2.15,-0.39 -3.72,-0.27 -4.71,0.35 -0.81,0.53 -1.33,1.45 -1.56,2.76l-5.62 31.5c-0.23,1.27 -0.04,2.29 0.58,3.08 0.75,0.97 2.19,1.65 4.34,2.03l-0.23 1.28zm20.29 6.61l-18.13 -5.15 0.35 -1.25c2.23,0.63 3.87,0.72 4.91,0.23 1.02,-0.43 1.72,-1.29 2.08,-2.57l8.74 -30.78c0.35,-1.24 0.25,-2.28 -0.3,-3.13 -0.76,-1.07 -2.24,-1.92 -4.43,-2.54l0.36 -1.25 18.13 5.15 -0.35 1.25c-2.25,-0.64 -3.95,-0.72 -5.08,-0.23 -0.93,0.42 -1.58,1.28 -1.94,2.56l-8.74 30.78c-0.35,1.24 -0.24,2.28 0.33,3.13 0.73,1.06 2.22,1.91 4.43,2.54l-0.35 1.25zm42.83 10.05c-4.47,1.75 -8.07,2.59 -10.79,2.51 -2.7,-0.07 -5.49,-0.75 -8.35,-2.04 -5.96,-2.7 -9.99,-6.68 -12.09,-11.95 -2.22,-5.48 -1.89,-11.39 0.99,-17.76 2.59,-5.74 6.63,-9.69 12.13,-11.88 5.79,-2.27 11.73,-2.02 17.8,0.72 1.76,0.8 3.4,1.77 4.91,2.93 1.52,1.26 3.08,2.5 4.66,3.74 0.51,0.23 1.14,0.28 1.86,0.12 0.68,-0.12 1.18,-0.42 1.48,-0.88l1.24 0.56 -5.56 13.54 -1.42 -0.64c0.55,-3.85 0.21,-7.18 -1.01,-9.98 -1.3,-2.99 -3.56,-5.21 -6.75,-6.66 -4.72,-2.13 -9.22,-1.87 -13.52,0.78 -3.71,2.28 -6.65,5.83 -8.81,10.62 -2.67,5.91 -3.21,11.12 -1.63,15.66 1.38,4 4.18,6.96 8.41,8.87 2.3,1.04 4.81,1.58 7.51,1.61 2.67,0.02 5.43,-0.52 8.29,-1.61l0.65 1.73zm29.7 12.69c-1.57,2.73 -3.93,4.5 -7.08,5.31 -3.53,0.91 -7.12,0.31 -10.77,-1.79 -1.5,-0.86 -3.02,-2.19 -4.55,-3.96 -1.53,-1.78 -2.5,-2.79 -2.9,-3.02 -0.46,-0.26 -0.88,-0.32 -1.26,-0.15 -0.47,0.21 -1.02,0.6 -1.67,1.16l-1.24 -0.71 5.36 -13.09 1.35 0.78c-0.71,3.5 -0.69,6.63 0.1,9.39 0.89,3.22 2.76,5.66 5.61,7.3 2.02,1.16 4,1.46 5.93,0.91 1.84,-0.53 3.29,-1.71 4.34,-3.53 1.47,-2.56 1.27,-5.82 -0.59,-9.8 -1.85,-3.46 -3.68,-6.94 -5.53,-10.45 -1.78,-4.23 -1.79,-7.87 -0.04,-10.91 1.61,-2.79 3.93,-4.55 6.98,-5.3 2.96,-0.74 5.9,-0.27 8.8,1.4 1.41,0.81 2.81,2.04 4.19,3.68 1.41,1.55 2.36,2.47 2.85,2.75 0.4,0.23 0.83,0.3 1.27,0.2 0.41,-0.08 0.92,-0.38 1.51,-0.91l1.07 0.62 -5.6 12.74 -1.41 -0.81c1.02,-3.43 1.14,-6.51 0.35,-9.25 -0.78,-2.73 -2.42,-4.83 -4.94,-6.28 -1.68,-0.97 -3.32,-1.3 -4.91,-0.98 -1.59,0.32 -2.83,1.26 -3.71,2.8 -1.37,2.38 -1.07,5.56 0.89,9.55 1.9,3.65 3.82,7.27 5.76,10.88 1.74,4.43 1.69,8.26 -0.17,11.49zm44.24 49.06l-12.44 -10.77 0.85 -0.98c1.22,1.06 2.18,1.66 2.89,1.81 0.7,0.19 1.33,-0.03 1.87,-0.65 0.33,-0.39 0.63,-0.82 0.87,-1.31 0.18,-0.46 0.51,-1.41 1,-2.85l2.06 -6.26 -12.72 -11.02 -5.94 2.98c-0.9,0.43 -1.56,0.78 -1.97,1.07 -0.44,0.24 -0.83,0.56 -1.18,0.96 -0.71,0.82 -0.92,1.66 -0.61,2.51 0.28,0.8 0.96,1.68 2.03,2.6l-0.85 0.98 -9.72 -8.42 0.85 -0.98c1.19,1.03 2.55,1.41 4.08,1.14 0.99,-0.17 2.53,-0.77 4.63,-1.8l35.37 -17.16 1.08 0.94 -12.38 39.6c-0.5,1.59 -0.73,2.74 -0.67,3.46 0.08,1.16 0.67,2.21 1.76,3.16l-0.85 0.98zm-1.94 -23.79l6.08 -18.12 -17.07 8.6 10.99 9.52zm64.6 32.3c-1.58,-1.83 -3.21,-2.67 -4.88,-2.54 -1.3,0.09 -2.72,0.8 -4.25,2.13l-27.13 23.5 -0.67 -0.78 8.37 -45.46 -20.6 17.84c-1.4,1.21 -2.26,2.44 -2.57,3.66 -0.47,1.8 0.1,3.6 1.68,5.43l-0.98 0.85 -10.04 -11.59 0.98 -0.85c1.6,1.84 3.23,2.7 4.89,2.58 1.31,-0.1 2.73,-0.82 4.26,-2.15l23.21 -20.1c0.32,-1.74 0.33,-3.01 0.03,-3.86 -0.29,-0.84 -0.89,-1.79 -1.82,-2.87l0.93 -0.81 7.32 8.45 -7.17 39.18 17.49 -15.15c1.41,-1.22 2.26,-2.44 2.55,-3.69 0.48,-1.78 -0.08,-3.59 -1.68,-5.43l0.98 -0.85 10.08 11.64 -0.98 0.85zm11.18 54.65c-5.36,3.44 -10.7,4.49 -16.02,3.18 -5.89,-1.43 -11.04,-5.59 -15.46,-12.49l-10.07 -15.71 1.1 -0.71c1.23,1.93 2.41,2.99 3.52,3.2 1.06,0.21 2.59,-0.34 4.59,-1.62l23.39 -15c2.23,-1.43 3.52,-2.67 3.87,-3.73 0.37,-1.03 -0.11,-2.58 -1.42,-4.63l1.08 -0.69 10.24 15.98c3.53,5.51 5.23,10.86 5.09,16.05 -0.16,6.64 -3.46,12.03 -9.9,16.16zm-3.94 -5.9c4.99,-3.2 7.97,-7.27 8.91,-12.21 0.95,-4.95 -0.23,-10 -3.54,-15.16 -0.09,-0.14 -0.18,-0.28 -0.28,-0.43 -0.53,-0.82 -0.99,-1.45 -1.41,-1.89 -0.52,-0.51 -1.28,-0.43 -2.27,0.21l-28.5 18.27c-0.8,0.51 -1.15,1.07 -1.06,1.7 0.03,0.59 0.51,1.62 1.45,3.09 3.35,5.23 7.24,8.45 11.66,9.65 4.69,1.28 9.71,0.2 15.04,-3.22zm34.62 54.34c-3.91,1.54 -7.49,1.19 -10.73,-1.04 -3.09,-2.14 -5.64,-5.74 -7.64,-10.81 -0.11,-0.28 -0.21,-0.52 -0.29,-0.74 -0.37,-0.93 -0.72,-2.01 -1.08,-3.25l-12.41 4.89c-1.21,0.48 -1.98,1.2 -2.29,2.16 -0.39,1.23 -0.16,2.91 0.68,5.03l-1.21 0.48 -6.74 -17.1 1.21 -0.48c0.76,1.93 1.64,3.16 2.66,3.69 0.99,0.5 2.09,0.51 3.29,0.03l29.78 -11.74c1.16,-0.46 1.92,-1.18 2.29,-2.16 0.42,-1.19 0.25,-2.73 -0.49,-4.62l1.19 -0.47 6.73 17.07c1.65,4.18 2.12,7.98 1.43,11.39 -0.77,3.74 -2.9,6.29 -6.36,7.66zm-2.79 -6.59c3.24,-1.28 5.14,-3.4 5.7,-6.37 0.38,-2.25 -0.02,-4.89 -1.21,-7.92 -0.05,-0.12 -0.09,-0.23 -0.13,-0.32 -0.49,-1.24 -0.89,-1.94 -1.2,-2.09 -0.41,-0.15 -1.31,0.04 -2.71,0.59l-14.91 5.88c0.1,0.37 0.29,0.92 0.58,1.65 0.25,0.74 0.46,1.39 0.63,1.94 1.26,3.19 2.86,5.37 4.81,6.56 2.31,1.36 5.13,1.39 8.45,0.08zm-6.29 55l-11.27 -0.2 -7.89 -34.21 1.28 -0.3c0.47,2.02 1.17,3.37 2.08,4.05 0.9,0.64 1.99,0.81 3.25,0.52l31.18 -7.2c1.21,-0.28 2.08,-0.88 2.59,-1.8 0.59,-1.11 0.65,-2.66 0.2,-4.64l1.25 -0.29 7.7 33.37 -8.79 2.35 -0.36 -1.57c1.96,-0.93 3.25,-1.72 3.87,-2.36 1.37,-1.34 1.64,-3.78 0.82,-7.33l-2.38 -10.33c-0.17,-0.72 -0.43,-1.12 -0.77,-1.22 -0.44,-0.11 -1.32,-0.02 -2.62,0.28l-13.34 3.08 2.34 10.15c0.49,2.1 1.2,3.51 2.14,4.22 0.92,0.68 2.7,0.97 5.35,0.86l0.35 1.51 -14.53 3.35 -0.35 -1.51c2.42,-1.06 3.92,-2.11 4.48,-3.13 0.5,-1.05 0.51,-2.62 0.02,-4.72l-2.34 -10.15 -15.37 3.55c-1.3,0.3 -2,0.82 -2.12,1.57 -0.12,0.67 0.08,2.16 0.61,4.45l1.05 4.54c0.82,3.57 2.06,6.22 3.7,7.98 1.66,1.7 4.14,2.81 7.46,3.33l0.41 1.8zm15.26 46.48c-6.35,0.48 -11.55,-1.12 -15.62,-4.8 -4.5,-4.05 -7.07,-10.16 -7.69,-18.33l-1.42 -18.61 1.31 -0.1c0.17,2.28 0.7,3.77 1.58,4.49 0.83,0.69 2.44,0.93 4.81,0.75l27.71 -2.11c2.64,-0.2 4.36,-0.68 5.17,-1.45 0.81,-0.74 1.13,-2.32 0.94,-4.75l1.28 -0.1 1.44 18.92c0.5,6.53 -0.55,12.04 -3.13,16.54 -3.29,5.77 -8.75,8.95 -16.38,9.53zm-0.67 -7.06c5.91,-0.45 10.46,-2.62 13.63,-6.53 3.18,-3.91 4.54,-8.91 4.07,-15.03 -0.01,-0.16 -0.03,-0.33 -0.04,-0.51 -0.07,-0.97 -0.19,-1.75 -0.34,-2.33 -0.22,-0.69 -0.92,-0.98 -2.1,-0.89l-33.76 2.57c-0.95,0.07 -1.52,0.4 -1.74,0.99 -0.25,0.53 -0.32,1.67 -0.19,3.41 0.47,6.19 2.37,10.87 5.69,14.02 3.53,3.35 8.45,4.78 14.77,4.3zm-23.34 56.89l1.25 -16.4 1.3 0.1c-0.12,1.61 -0.03,2.74 0.26,3.4 0.26,0.67 0.81,1.05 1.63,1.11 0.51,0.04 1.03,0.01 1.57,-0.08 0.48,-0.13 1.44,-0.43 2.88,-0.89l6.26 -2.08 1.28 -16.78 -5.94 -2.99c-0.88,-0.47 -1.56,-0.79 -2.04,-0.95 -0.45,-0.21 -0.94,-0.33 -1.47,-0.37 -1.08,-0.08 -1.88,0.25 -2.38,1 -0.48,0.7 -0.78,1.77 -0.88,3.18l-1.3 -0.1 0.98 -12.83 1.3 0.1c-0.12,1.57 0.39,2.89 1.51,3.96 0.73,0.7 2.13,1.57 4.2,2.65l34.85 18.19 -0.11 1.43 -39.19 13.64c-1.57,0.54 -2.63,1.05 -3.18,1.52 -0.88,0.76 -1.38,1.85 -1.49,3.29l-1.3 -0.1zm17.96 -15.73l18.18 -5.91 -17.07 -8.59 -1.1 14.5zm-6.64 66.88c0.4,-1.73 0.28,-3.01 -0.33,-3.81 -0.62,-0.8 -1.83,-1.41 -3.65,-1.83l-12.18 -2.81c-0.68,-0.16 -1.25,-1.91 -1.72,-5.28 -0.6,-4.1 -0.4,-8.28 0.58,-12.55 1.25,-5.41 4,-9.78 8.28,-13.12 5.18,-4.09 11.39,-5.29 18.61,-3.62 6.25,1.44 10.99,4.68 14.19,9.73 3.18,5.06 4.01,10.86 2.5,17.4 -0.43,1.88 -1.07,3.68 -1.91,5.39 -0.93,1.76 -1.85,3.52 -2.75,5.32 -0.13,0.55 -0.04,1.17 0.25,1.84 0.26,0.65 0.64,1.07 1.15,1.28l-0.35 1.51 -13.53 -2.67 0.33 -1.45c3.9,-0.47 6.99,-1.55 9.25,-3.22 2.44,-1.79 4.05,-4.4 4.84,-7.83 1.06,-4.57 0.25,-8.63 -2.42,-12.18 -2.84,-3.75 -7.22,-6.3 -13.16,-7.67 -6.26,-1.44 -11.51,-0.91 -15.75,1.59 -3.73,2.16 -6.09,5.43 -7.1,9.8 -0.41,1.77 -0.58,3.44 -0.52,4.97 0.05,1.49 0.32,2.89 0.82,4.2 0.06,0.15 0.16,0.25 0.32,0.33 0.29,0.16 0.75,0.31 1.4,0.46l10.27 2.37c1.94,0.45 3.3,0.45 4.08,-0 0.92,-0.52 1.67,-1.97 2.21,-4.34l1.27 0.29 -3.74 16.2 -1.27 -0.29zm-17.59 46.21c-5.86,-2.31 -10.1,-5.99 -12.74,-11.02 -2.77,-5.32 -2.98,-10.96 -0.63,-16.92 2.36,-5.98 6.38,-10.01 12.07,-12.08 5.41,-2 11.05,-1.85 16.91,0.46 5.85,2.31 10.02,6 12.51,11.07 2.63,5.35 2.76,11.04 0.38,17.06 -2.36,6 -6.29,10.01 -11.78,12.03 -5.24,1.93 -10.82,1.73 -16.71,-0.59zm2.68 -6.84c5.54,2.19 10.33,2.9 14.35,2.14 4.52,-0.82 7.61,-3.35 9.29,-7.59 0.01,-0.02 0.02,-0.04 0.02,-0.06 1.69,-4.28 1.18,-8.26 -1.51,-11.94 -2.49,-3.46 -6.47,-6.28 -11.94,-8.43 -5.54,-2.19 -10.41,-2.88 -14.6,-2.1 -4.61,0.83 -7.78,3.41 -9.49,7.75 -1.66,4.2 -1.07,8.16 1.75,11.87 2.6,3.42 6.64,6.21 12.13,8.37zm-28.16 52.02c0.89,-1.54 1.14,-2.79 0.79,-3.75 -0.36,-0.94 -1.34,-1.88 -2.96,-2.81l-10.83 -6.23c-0.6,-0.35 -0.64,-2.19 -0.11,-5.55 0.62,-4.1 2.02,-8.04 4.2,-11.83 2.77,-4.81 6.67,-8.19 11.73,-10.14 6.15,-2.4 12.43,-1.75 18.86,1.94 5.56,3.2 9.15,7.67 10.75,13.43 1.57,5.77 0.68,11.56 -2.66,17.37 -0.96,1.67 -2.09,3.21 -3.39,4.6 -1.4,1.41 -2.79,2.83 -4.18,4.29 -0.28,0.49 -0.38,1.11 -0.29,1.83 0.06,0.7 0.3,1.21 0.73,1.56l-0.77 1.34 -12.17 -6.49 0.74 -1.29c3.87,0.69 7.13,0.55 9.79,-0.39 2.86,-1.01 5.16,-3.04 6.91,-6.08 2.34,-4.07 2.74,-8.19 1.23,-12.36 -1.63,-4.41 -5.08,-8.13 -10.36,-11.17 -5.57,-3.2 -10.75,-4.22 -15.53,-3.06 -4.19,0.99 -7.41,3.43 -9.64,7.31 -0.91,1.58 -1.56,3.12 -1.95,4.61 -0.39,1.44 -0.53,2.86 -0.44,4.26 0.01,0.16 0.09,0.29 0.21,0.41 0.23,0.23 0.63,0.51 1.2,0.84l9.13 5.25c1.73,0.99 3.03,1.39 3.91,1.18 1.03,-0.23 2.17,-1.4 3.38,-3.51l1.13 0.65 -8.29 14.41 -1.13 -0.65z"/>
    <path class="fil19" d="M639.51 622.9c0.88,-1.12 1.32,-2.56 1.34,-4.32 -0.02,-1.56 -0.36,-3.3 -1.01,-5.24l-6.33 -18.63 -10.3 -8.1c-1.59,-1.25 -2.92,-1.72 -4.03,-1.43 -1.1,0.29 -2.49,1.5 -4.16,3.62l-1.02 -0.8 12.28 -15.62 1 0.78c-1.57,2.03 -2.35,3.6 -2.35,4.7 0.01,1.11 0.8,2.28 2.38,3.53l9.95 7.82 20.02 1.25c2.2,0.13 3.85,0.15 4.96,0.01 2.03,-0.25 3.52,-0.99 4.46,-2.19l1.02 0.8 -11.28 14.36 -1.02 -0.8c0.96,-1.22 1.6,-2.17 1.93,-2.86 0.27,-0.73 0.04,-1.37 -0.67,-1.93 -0.43,-0.33 -0.97,-0.59 -1.65,-0.73 -0.34,-0.04 -1.06,-0.1 -2.15,-0.2l-15.97 -1.04 5.45 15.97c0.35,1.02 0.85,1.8 1.5,2.31 0.66,0.52 1.33,0.52 2.03,0.01 0.7,-0.49 1.45,-1.26 2.26,-2.28l1.02 0.8 -8.65 11 -1.02 -0.8z"/>
   </g>
  </g>
 </g>
</svg>
